<?xml version="1.0" encoding="UTF-8" ?>
<!DOCTYPE svg PUBLIC "-//W3C//DTD SVG 1.1//EN" "http://www.w3.org/Graphics/SVG/1.1/DTD/svg11.dtd">
<svg width="1080pt" height="1080pt" viewBox="0 0 1080 1080" version="1.1" xmlns="http://www.w3.org/2000/svg">
<g id="#ef3124ff">
<path fill="#ef3124" opacity="1.00" d=" M 528.67 0.00 L 548.66 0.00 C 592.86 0.89 636.98 6.79 679.69 18.27 C 756.45 38.70 828.47 76.54 889.00 127.95 C 935.45 167.31 975.21 214.55 1006.02 267.07 C 1031.41 310.29 1050.71 357.09 1063.13 405.66 C 1073.50 445.83 1078.84 487.21 1080.00 528.66 L 1080.00 548.76 C 1079.09 593.15 1073.14 637.47 1061.55 680.35 C 1040.90 757.57 1002.61 829.96 950.63 890.66 C 903.93 945.36 846.23 990.62 781.95 1022.88 C 743.71 1042.06 703.19 1056.69 661.49 1066.25 C 625.37 1074.64 588.39 1078.93 551.35 1080.00 L 531.28 1080.00 C 484.03 1079.06 436.87 1072.33 391.43 1059.28 C 340.70 1044.81 292.16 1022.76 247.83 994.18 C 192.01 958.22 142.91 911.90 103.75 858.28 C 57.53 795.14 25.28 721.82 10.23 645.01 C 4.06 614.16 0.96 582.77 0.00 551.34 L 0.00 534.69 C 0.64 476.24 10.57 417.87 29.82 362.65 C 54.50 291.54 94.38 225.78 145.88 170.89 C 198.71 114.44 263.75 69.45 335.32 40.16 C 396.55 14.93 462.50 1.63 528.67 0.00 M 503.97 238.93 C 490.23 248.49 481.94 263.64 476.06 278.92 C 468.88 297.76 462.74 316.98 455.89 335.93 C 455.53 336.91 455.18 337.89 454.83 338.87 C 448.66 355.81 442.98 372.92 436.88 389.88 C 436.52 390.87 436.16 391.86 435.80 392.85 C 434.34 397.31 432.68 401.70 431.14 406.13 C 425.85 420.63 421.08 435.33 415.81 449.84 C 414.56 453.25 413.33 456.67 412.13 460.10 C 406.01 477.06 400.44 494.21 394.14 511.10 C 393.42 513.09 392.74 515.09 392.13 517.11 C 386.29 533.05 380.99 549.19 375.21 565.15 C 368.65 583.06 362.69 601.19 356.21 619.13 C 352.75 628.55 349.43 638.02 346.25 647.54 C 374.00 647.62 401.75 647.50 429.51 647.60 C 430.84 644.16 431.88 640.61 433.21 637.16 C 439.37 619.86 444.97 602.38 451.15 585.09 C 451.70 583.37 452.26 581.66 452.81 579.94 C 453.29 578.68 453.77 577.41 454.28 576.16 C 455.70 571.81 457.27 567.50 458.76 563.18 C 512.24 563.20 565.71 563.18 619.19 563.19 C 621.62 571.19 624.25 579.12 626.85 587.07 C 627.15 588.09 627.50 589.09 627.88 590.10 C 633.89 609.20 640.05 628.28 645.90 647.43 C 675.51 647.72 705.14 647.51 734.77 647.54 C 731.70 637.94 728.55 628.37 725.26 618.85 C 724.89 617.86 724.53 616.87 724.20 615.88 C 723.85 614.87 723.51 613.87 723.18 612.87 C 717.32 595.64 711.77 578.31 705.86 561.09 C 705.23 559.06 704.55 557.06 703.88 555.05 C 703.51 554.05 703.15 553.05 702.82 552.06 C 691.04 516.84 679.15 481.65 667.47 446.40 C 660.63 427.06 654.57 407.45 647.81 388.09 C 647.66 387.57 647.35 386.54 647.20 386.02 C 646.90 384.97 646.55 383.94 646.15 382.94 C 645.52 380.93 644.67 378.99 644.13 376.96 C 636.48 354.77 629.39 332.39 621.65 310.22 C 617.29 297.09 613.25 283.82 607.82 271.08 C 602.34 258.86 595.34 246.62 584.01 238.94 C 572.31 230.22 557.17 228.13 542.95 228.25 C 529.39 228.37 515.19 230.83 503.97 238.93 M 329.07 769.94 C 329.06 798.06 329.06 826.19 329.07 854.31 C 470.04 854.31 611.02 854.31 752.00 854.31 C 752.00 826.19 752.00 798.06 752.00 769.94 C 611.02 769.93 470.04 769.94 329.07 769.94 Z" />
<path fill="#ef3124" opacity="1.00" d=" M 539.87 321.44 C 540.61 321.39 541.36 321.35 542.11 321.32 C 544.19 327.51 545.85 333.84 548.17 339.95 C 548.30 340.49 548.55 341.57 548.67 342.10 C 555.21 361.25 560.75 380.72 567.15 399.91 C 567.68 401.65 568.25 403.37 568.84 405.10 C 569.60 407.71 570.48 410.29 571.27 412.91 C 577.28 431.26 582.76 449.79 588.81 468.14 C 591.19 475.60 593.77 483.01 595.94 490.54 C 558.29 490.59 520.65 490.61 483.01 490.53 C 489.61 470.41 496.78 450.48 503.22 430.29 C 505.36 423.80 507.54 417.32 509.83 410.88 C 510.85 407.88 511.81 404.86 512.79 401.85 C 513.28 400.57 513.79 399.30 514.25 398.01 C 519.85 381.05 525.46 364.08 531.24 347.17 C 534.25 338.64 537.08 330.04 539.87 321.44 Z" />
</g>
<g id="#ffffffff">
<path fill="#ffffff" opacity="1.00" d=" M 503.97 238.93 C 515.19 230.83 529.39 228.37 542.95 228.25 C 557.17 228.13 572.31 230.22 584.01 238.94 C 595.34 246.62 602.34 258.86 607.82 271.08 C 613.25 283.82 617.29 297.09 621.65 310.22 C 629.39 332.39 636.48 354.77 644.13 376.96 C 644.67 378.99 645.52 380.93 646.15 382.94 C 646.55 383.94 646.90 384.97 647.20 386.02 C 647.35 386.54 647.66 387.57 647.81 388.09 C 654.57 407.45 660.63 427.06 667.47 446.40 C 679.15 481.65 691.04 516.84 702.82 552.06 C 703.15 553.05 703.51 554.05 703.88 555.05 C 704.55 557.06 705.23 559.06 705.86 561.09 C 711.77 578.31 717.32 595.64 723.18 612.87 C 723.51 613.87 723.85 614.87 724.20 615.88 C 724.53 616.87 724.89 617.86 725.26 618.85 C 728.55 628.37 731.70 637.94 734.77 647.54 C 705.14 647.51 675.51 647.72 645.90 647.43 C 640.05 628.28 633.89 609.20 627.88 590.10 C 627.50 589.09 627.15 588.09 626.85 587.07 C 624.25 579.12 621.62 571.19 619.19 563.19 C 565.71 563.18 512.24 563.20 458.76 563.18 C 457.27 567.50 455.70 571.81 454.28 576.16 C 453.77 577.41 453.29 578.68 452.81 579.94 C 452.26 581.66 451.70 583.37 451.15 585.09 C 444.97 602.38 439.37 619.86 433.21 637.16 C 431.88 640.61 430.84 644.16 429.51 647.60 C 401.75 647.50 374.00 647.62 346.25 647.54 C 349.43 638.02 352.75 628.55 356.21 619.13 C 362.69 601.19 368.65 583.06 375.21 565.15 C 380.99 549.19 386.29 533.05 392.13 517.11 C 392.74 515.09 393.42 513.09 394.14 511.10 C 400.44 494.21 406.01 477.06 412.13 460.10 C 413.33 456.67 414.56 453.25 415.81 449.84 C 421.08 435.33 425.85 420.63 431.14 406.13 C 432.68 401.70 434.34 397.31 435.80 392.85 C 436.16 391.86 436.52 390.87 436.88 389.88 C 442.98 372.92 448.66 355.81 454.83 338.87 C 455.18 337.89 455.53 336.91 455.89 335.93 C 462.74 316.98 468.88 297.76 476.06 278.92 C 481.94 263.64 490.23 248.49 503.97 238.93 M 539.87 321.44 C 537.08 330.04 534.25 338.64 531.24 347.17 C 525.46 364.08 519.85 381.05 514.25 398.01 C 513.79 399.30 513.28 400.57 512.79 401.85 C 511.81 404.86 510.85 407.88 509.83 410.88 C 507.54 417.32 505.36 423.80 503.22 430.29 C 496.78 450.48 489.61 470.41 483.01 490.53 C 520.65 490.61 558.29 490.59 595.94 490.54 C 593.77 483.01 591.19 475.60 588.81 468.14 C 582.76 449.79 577.28 431.26 571.27 412.91 C 570.48 410.29 569.60 407.71 568.84 405.10 C 568.25 403.37 567.68 401.65 567.15 399.91 C 560.75 380.72 555.21 361.25 548.67 342.10 C 548.55 341.57 548.30 340.49 548.17 339.95 C 545.85 333.84 544.19 327.51 542.11 321.32 C 541.36 321.35 540.61 321.39 539.87 321.44 Z" />
<path fill="#ffffff" opacity="1.00" d=" M 329.07 769.94 C 470.04 769.94 611.02 769.93 752.00 769.94 C 752.00 798.06 752.00 826.19 752.00 854.31 C 611.02 854.31 470.04 854.31 329.07 854.31 C 329.06 826.19 329.06 798.06 329.07 769.94 Z" />
</g>
</svg>
