<svg width="48" height="18" viewBox="0 0 48 18" fill="none" xmlns="http://www.w3.org/2000/svg">
<path d="M11.1025 10.4572H1.38086L6.68153 5.93465L3.56349 1.16089H17.2022L13.2822 16.9896" stroke="white" stroke-width="1.13036" stroke-linecap="round" stroke-linejoin="round"/>
<path d="M21.6676 12.78L19.2472 4.05276H20.6321L22.3324 10.8113H22.4134L24.1818 4.05276H25.554L27.3224 10.8155H27.4034L29.0994 4.05276H30.4886L28.0639 12.78H26.7386L24.902 6.2431H24.8338L22.9972 12.78H21.6676ZM31.587 12.78V6.23457H32.8612V12.78H31.587ZM32.2305 5.22463C32.0089 5.22463 31.8185 5.15077 31.6594 5.00304C31.5032 4.85247 31.4251 4.67349 31.4251 4.46611C31.4251 4.25588 31.5032 4.0769 31.6594 3.92918C31.8185 3.77861 32.0089 3.70332 32.2305 3.70332C32.4521 3.70332 32.641 3.77861 32.7972 3.92918C32.9563 4.0769 33.0359 4.25588 33.0359 4.46611C33.0359 4.67349 32.9563 4.85247 32.7972 5.00304C32.641 5.15077 32.4521 5.22463 32.2305 5.22463ZM39.4801 7.83259L38.3253 8.03713C38.277 7.8894 38.2003 7.74878 38.0952 7.61526C37.9929 7.48173 37.8537 7.37236 37.6776 7.28713C37.5014 7.2019 37.2813 7.15929 37.017 7.15929C36.6563 7.15929 36.3551 7.24026 36.1136 7.40219C35.8722 7.56128 35.7514 7.76725 35.7514 8.02009C35.7514 8.23884 35.8324 8.41497 35.9943 8.5485C36.1563 8.68202 36.4176 8.79139 36.7784 8.87662L37.8182 9.11526C38.4205 9.25446 38.8693 9.46895 39.1648 9.75872C39.4602 10.0485 39.608 10.4249 39.608 10.888C39.608 11.28 39.4943 11.6295 39.267 11.9363C39.0426 12.2403 38.7287 12.4789 38.3253 12.6522C37.9247 12.8255 37.4602 12.9121 36.9318 12.9121C36.1989 12.9121 35.6009 12.7559 35.1378 12.4434C34.6747 12.128 34.3906 11.6806 34.2855 11.1011L35.517 10.9136C35.5938 11.2346 35.7514 11.4775 35.9901 11.6422C36.2287 11.8042 36.5398 11.8851 36.9233 11.8851C37.3409 11.8851 37.6747 11.7985 37.9247 11.6252C38.1747 11.4491 38.2997 11.2346 38.2997 10.9817C38.2997 10.7772 38.223 10.6053 38.0696 10.4661C37.919 10.3269 37.6875 10.2218 37.375 10.1508L36.267 9.90787C35.6563 9.76867 35.2045 9.54707 34.9119 9.2431C34.6222 8.93912 34.4773 8.55418 34.4773 8.08827C34.4773 7.7019 34.5852 7.36384 34.8011 7.07406C35.017 6.78429 35.3153 6.55844 35.696 6.39651C36.0767 6.23173 36.5128 6.14935 37.0043 6.14935C37.7116 6.14935 38.2685 6.30276 38.6747 6.60957C39.081 6.91355 39.3494 7.32122 39.4801 7.83259ZM43.8299 12.9121C43.185 12.9121 42.6296 12.7743 42.1637 12.4988C41.7006 12.2204 41.3427 11.8297 41.0898 11.3269C40.8398 10.8212 40.7148 10.2289 40.7148 9.54992C40.7148 8.87946 40.8398 8.28855 41.0898 7.77719C41.3427 7.26582 41.695 6.86668 42.1467 6.57974C42.6012 6.29281 43.1325 6.14935 43.7404 6.14935C44.1097 6.14935 44.4677 6.21043 44.8143 6.33259C45.1609 6.45475 45.4719 6.64651 45.7475 6.90787C46.0231 7.16923 46.2404 7.50872 46.3995 7.92634C46.5586 8.34111 46.6381 8.84537 46.6381 9.43912V9.89082H41.435V8.93628H45.3896C45.3896 8.60105 45.3214 8.30418 45.185 8.04565C45.0487 7.78429 44.8569 7.57832 44.6097 7.42776C44.3654 7.27719 44.0785 7.2019 43.7489 7.2019C43.391 7.2019 43.0785 7.28997 42.8114 7.46611C42.5472 7.6394 42.3427 7.86668 42.1978 8.14793C42.0558 8.42634 41.9847 8.72889 41.9847 9.0556V9.80134C41.9847 10.2388 42.0614 10.611 42.2148 10.9178C42.3711 11.2246 42.5884 11.459 42.8668 11.6209C43.1452 11.78 43.4705 11.8596 43.8427 11.8596C44.0842 11.8596 44.3043 11.8255 44.5032 11.7573C44.7021 11.6863 44.8739 11.5812 45.0188 11.442C45.1637 11.3028 45.2745 11.1309 45.3512 10.9263L46.5572 11.1437C46.4606 11.4988 46.2873 11.8099 46.0373 12.0769C45.7901 12.3411 45.479 12.5471 45.104 12.6948C44.7319 12.8397 44.3072 12.9121 43.8299 12.9121Z" fill="white"/>
</svg>
