<svg width="58" height="21" viewBox="0 0 58 21" fill="none" xmlns="http://www.w3.org/2000/svg">
<g clip-path="url(#clip0_8_48)">
<g clip-path="url(#clip1_8_48)">
<path d="M17.5787 7.8446C17.9886 8.57839 18.0424 9.52353 17.829 10.6176C17.2118 13.7888 15.099 14.8843 12.4007 14.8843H11.984C11.6546 14.8843 11.374 15.1248 11.3223 15.4504L11.2885 15.6343L10.764 18.9615L10.7368 19.1032C10.6851 19.4288 10.4045 19.6688 10.0751 19.6688H7.28955C7.04233 19.6688 6.85344 19.4482 6.89177 19.2043L7.03768 18.2798H8.30321L9.09431 13.2626H10.249C14.1473 13.2626 16.7067 11.4272 17.5787 7.8446ZM15.1115 3.60307C15.7471 4.32683 15.9317 5.11229 15.7391 6.3409C15.7231 6.44315 15.706 6.54146 15.6871 6.64031C15.0744 9.78462 13.1132 11.1793 9.89071 11.1793H8.32015C7.79468 11.1793 7.34236 11.5238 7.19239 12.0141L7.18023 12.0122L6.4057 16.9243H3.45736C3.43088 16.9243 3.41094 16.901 3.4151 16.8745L5.58016 3.11514C5.64074 2.73017 5.97249 2.44653 6.36221 2.44653H11.3418C13.1608 2.44653 14.4392 2.83711 15.1115 3.60307Z" fill="white"/>
</g>
</g>
<path d="M21.7587 14.78V6.59821H24.6751C25.3117 6.59821 25.839 6.71407 26.2571 6.94578C26.6753 7.17749 26.9882 7.49443 27.196 7.8966C27.4037 8.2961 27.5076 8.7462 27.5076 9.24691C27.5076 9.75029 27.4024 10.2031 27.192 10.6052C26.9842 11.0047 26.67 11.3217 26.2492 11.556C25.831 11.7878 25.305 11.9036 24.6711 11.9036H22.6656V10.8569H24.5593C24.9614 10.8569 25.2877 10.7877 25.538 10.6492C25.7884 10.508 25.9722 10.3163 26.0894 10.0739C26.2065 9.83152 26.2651 9.55586 26.2651 9.24691C26.2651 8.93797 26.2065 8.66364 26.0894 8.42394C25.9722 8.18424 25.7871 7.99647 25.534 7.86064C25.2837 7.72481 24.9534 7.65689 24.5433 7.65689H22.9932V14.78H21.7587ZM30.5898 14.9159C30.2009 14.9159 29.8493 14.8439 29.5351 14.7001C29.2208 14.5536 28.9718 14.3419 28.788 14.0649C28.6069 13.7879 28.5163 13.4484 28.5163 13.0462C28.5163 12.7 28.5829 12.415 28.7161 12.1913C28.8493 11.9675 29.029 11.7904 29.2554 11.6599C29.4818 11.5294 29.7348 11.4309 30.0145 11.3643C30.2941 11.2977 30.5791 11.2471 30.8694 11.2125C31.2369 11.1699 31.5352 11.1352 31.7643 11.1086C31.9933 11.0793 32.1598 11.0327 32.2637 10.9688C32.3675 10.9049 32.4195 10.801 32.4195 10.6572V10.6292C32.4195 10.2803 32.3209 10.01 32.1238 9.8182C31.9294 9.62644 31.6391 9.53056 31.2529 9.53056C30.8508 9.53056 30.5338 9.61978 30.3021 9.79823C30.0731 9.97401 29.9146 10.1698 29.8267 10.3855L28.7041 10.1298C28.8373 9.75695 29.0317 9.45599 29.2874 9.22694C29.5457 8.99523 29.8427 8.82744 30.1783 8.72357C30.5138 8.61703 30.8667 8.56377 31.2369 8.56377C31.482 8.56377 31.7417 8.59306 32.016 8.65166C32.293 8.70759 32.5513 8.81146 32.791 8.96327C33.0334 9.11508 33.2318 9.33214 33.3863 9.61446C33.5407 9.89411 33.618 10.2577 33.618 10.7051V14.78H32.4514V13.9411H32.4035C32.3263 14.0955 32.2104 14.2474 32.0559 14.3965C31.9015 14.5457 31.703 14.6695 31.4607 14.768C31.2183 14.8666 30.928 14.9159 30.5898 14.9159ZM30.8494 13.9571C31.1797 13.9571 31.462 13.8918 31.6964 13.7613C31.9334 13.6308 32.1132 13.4603 32.2357 13.2499C32.3609 13.0369 32.4235 12.8091 32.4235 12.5668V11.7758C32.3809 11.8184 32.2983 11.8583 32.1758 11.8956C32.0559 11.9302 31.9188 11.9609 31.7643 11.9875C31.6098 12.0115 31.4593 12.0341 31.3129 12.0554C31.1664 12.0741 31.0439 12.09 30.9453 12.1034C30.7136 12.1327 30.5019 12.1819 30.3101 12.2512C30.121 12.3204 29.9692 12.4203 29.8547 12.5508C29.7428 12.6786 29.6869 12.8491 29.6869 13.0622C29.6869 13.3578 29.7961 13.5815 30.0145 13.7333C30.2329 13.8825 30.5112 13.9571 30.8494 13.9571ZM35.7443 17.0812C35.5659 17.0812 35.4034 17.0665 35.2569 17.0372C35.1105 17.0106 35.0013 16.9813 34.9294 16.9493L35.217 15.9705C35.4354 16.0291 35.6298 16.0544 35.8003 16.0465C35.9707 16.0385 36.1212 15.9745 36.2517 15.8547C36.3849 15.7348 36.5021 15.5391 36.6033 15.2674L36.7511 14.8599L34.5059 8.64367H35.7843L37.3384 13.4057H37.4023L38.9563 8.64367H40.2387L37.7099 15.599C37.5927 15.9186 37.4436 16.1889 37.2625 16.41C37.0813 16.6337 36.8656 16.8015 36.6153 16.9134C36.3649 17.0252 36.0746 17.0812 35.7443 17.0812ZM41.4572 14.78V6.59821H44.3736C45.0101 6.59821 45.5375 6.71407 45.9556 6.94578C46.3738 7.17749 46.6867 7.49443 46.8945 7.8966C47.1022 8.2961 47.2061 8.7462 47.2061 9.24691C47.2061 9.75029 47.1009 10.2031 46.8905 10.6052C46.6827 11.0047 46.3685 11.3217 45.9476 11.556C45.5295 11.7878 45.0035 11.9036 44.3696 11.9036H42.3641V10.8569H44.2577C44.6599 10.8569 44.9862 10.7877 45.2365 10.6492C45.4869 10.508 45.6707 10.3163 45.7878 10.0739C45.905 9.83152 45.9636 9.55586 45.9636 9.24691C45.9636 8.93797 45.905 8.66364 45.7878 8.42394C45.6707 8.18424 45.4856 7.99647 45.2325 7.86064C44.9822 7.72481 44.6519 7.65689 44.2418 7.65689H42.6917V14.78H41.4572ZM50.2882 14.9159C49.8994 14.9159 49.5478 14.8439 49.2336 14.7001C48.9193 14.5536 48.6703 14.3419 48.4865 14.0649C48.3054 13.7879 48.2148 13.4484 48.2148 13.0462C48.2148 12.7 48.2814 12.415 48.4146 12.1913C48.5477 11.9675 48.7275 11.7904 48.9539 11.6599C49.1803 11.5294 49.4333 11.4309 49.713 11.3643C49.9926 11.2977 50.2776 11.2471 50.5679 11.2125C50.9354 11.1699 51.2337 11.1352 51.4628 11.1086C51.6918 11.0793 51.8583 11.0327 51.9622 10.9688C52.066 10.9049 52.118 10.801 52.118 10.6572V10.6292C52.118 10.2803 52.0194 10.01 51.8223 9.8182C51.6279 9.62644 51.3376 9.53056 50.9514 9.53056C50.5492 9.53056 50.2323 9.61978 50.0006 9.79823C49.7716 9.97401 49.6131 10.1698 49.5252 10.3855L48.4026 10.1298C48.5358 9.75695 48.7302 9.45599 48.9859 9.22694C49.2442 8.99523 49.5412 8.82744 49.8768 8.72357C50.2123 8.61703 50.5652 8.56377 50.9354 8.56377C51.1805 8.56377 51.4401 8.59306 51.7145 8.65166C51.9915 8.70759 52.2498 8.81146 52.4895 8.96327C52.7319 9.11508 52.9303 9.33214 53.0848 9.61446C53.2392 9.89411 53.3165 10.2577 53.3165 10.7051V14.78H52.1499V13.9411H52.102C52.0247 14.0955 51.9089 14.2474 51.7544 14.3965C51.5999 14.5457 51.4015 14.6695 51.1592 14.768C50.9168 14.8666 50.6265 14.9159 50.2882 14.9159ZM50.5479 13.9571C50.8782 13.9571 51.1605 13.8918 51.3949 13.7613C51.6319 13.6308 51.8117 13.4603 51.9342 13.2499C52.0594 13.0369 52.122 12.8091 52.122 12.5668V11.7758C52.0793 11.8184 51.9968 11.8583 51.8743 11.8956C51.7544 11.9302 51.6173 11.9609 51.4628 11.9875C51.3083 12.0115 51.1578 12.0341 51.0113 12.0554C50.8649 12.0741 50.7423 12.09 50.6438 12.1034C50.4121 12.1327 50.2004 12.1819 50.0086 12.2512C49.8195 12.3204 49.6677 12.4203 49.5532 12.5508C49.4413 12.6786 49.3854 12.8491 49.3854 13.0622C49.3854 13.3578 49.4946 13.5815 49.713 13.7333C49.9314 13.8825 50.2097 13.9571 50.5479 13.9571ZM56.102 6.59821V14.78H54.9075V6.59821H56.102Z" fill="white"/>
<defs>
<clipPath id="clip0_8_48">
<rect width="20" height="20" fill="white" transform="translate(0.859863 0.780029)"/>
</clipPath>
<clipPath id="clip1_8_48">
<rect width="20" height="20" fill="white" transform="translate(0.859863 0.780029)"/>
</clipPath>
</defs>
</svg>
