<svg width="52" height="18" viewBox="0 0 52 18" fill="none" xmlns="http://www.w3.org/2000/svg">
<path d="M0.361816 15.4465H17.0284V17.1132H0.361816V15.4465ZM2.02848 8.77987H3.69515V14.6132H2.02848V8.77987ZM6.19515 8.77987H7.86181V14.6132H6.19515V8.77987ZM9.52844 8.77987H11.1951V14.6132H9.52844V8.77987ZM13.6951 8.77987H15.3618V14.6132H13.6951V8.77987ZM0.361816 4.6132L8.69514 0.446533L17.0284 4.6132V7.94653H0.361816V4.6132ZM8.69514 5.44653C9.15544 5.44653 9.52844 5.07343 9.52844 4.6132C9.52844 4.15297 9.15544 3.77987 8.69514 3.77987C8.2349 3.77987 7.86181 4.15297 7.86181 4.6132C7.86181 5.07343 8.2349 5.44653 8.69514 5.44653Z" fill="white"/>
<path d="M19.5888 12.78V4.59821H22.5851C23.1657 4.59821 23.6464 4.69409 24.0273 4.88585C24.4082 5.07495 24.6931 5.33196 24.8822 5.65689C25.0713 5.97916 25.1659 6.34271 25.1659 6.74754C25.1659 7.08845 25.1033 7.37609 24.9781 7.61046C24.8529 7.84217 24.6851 8.02861 24.4747 8.16977C24.267 8.30826 24.038 8.40947 23.7876 8.47339V8.55329C24.0593 8.56661 24.3243 8.6545 24.5826 8.81696C24.8436 8.97676 25.0593 9.20448 25.2298 9.50011C25.4003 9.79574 25.4855 10.1553 25.4855 10.5788C25.4855 10.9969 25.3869 11.3724 25.1899 11.7054C24.9954 12.0356 24.6945 12.298 24.287 12.4924C23.8795 12.6841 23.3588 12.78 22.7249 12.78H19.5888ZM20.8233 11.7213H22.6051C23.1963 11.7213 23.6198 11.6068 23.8755 11.3778C24.1312 11.1487 24.259 10.8624 24.259 10.5188C24.259 10.2605 24.1938 10.0235 24.0633 9.80773C23.9328 9.592 23.7463 9.42021 23.504 9.29237C23.2642 9.16453 22.9793 9.10061 22.649 9.10061H20.8233V11.7213ZM20.8233 8.13781H22.4772C22.7542 8.13781 23.0032 8.08454 23.2243 7.97801C23.448 7.87147 23.6251 7.72232 23.7556 7.53056C23.8888 7.33614 23.9554 7.10709 23.9554 6.84342C23.9554 6.50517 23.8369 6.22152 23.5998 5.99248C23.3628 5.76343 22.9992 5.6489 22.5092 5.6489H20.8233V8.13781ZM28.6396 12.9159C28.2507 12.9159 27.8991 12.8439 27.5849 12.7001C27.2706 12.5536 27.0216 12.3419 26.8378 12.0649C26.6567 11.7879 26.5661 11.4484 26.5661 11.0462C26.5661 10.7 26.6327 10.415 26.7659 10.1913C26.8991 9.96753 27.0788 9.79042 27.3052 9.65991C27.5316 9.52941 27.7846 9.43086 28.0643 9.36428C28.3439 9.2977 28.6289 9.24709 28.9192 9.21247C29.2868 9.16986 29.585 9.13523 29.8141 9.1086C30.0431 9.0793 30.2096 9.03269 30.3135 8.96877C30.4173 8.90485 30.4693 8.80098 30.4693 8.65716V8.62919C30.4693 8.2803 30.3707 8.00997 30.1737 7.8182C29.9792 7.62644 29.6889 7.53056 29.3027 7.53056C28.9006 7.53056 28.5836 7.61978 28.3519 7.79823C28.1229 7.97401 27.9644 8.16977 27.8765 8.3855L26.7539 8.12982C26.8871 7.75695 27.0815 7.45599 27.3372 7.22694C27.5955 6.99523 27.8925 6.82744 28.2281 6.72357C28.5637 6.61703 28.9165 6.56377 29.2868 6.56377C29.5318 6.56377 29.7915 6.59306 30.0658 6.65166C30.3428 6.70759 30.6011 6.81146 30.8408 6.96327C31.0832 7.11508 31.2816 7.33214 31.4361 7.61446C31.5906 7.89411 31.6678 8.25766 31.6678 8.7051V12.78H30.5012V11.9411H30.4533C30.3761 12.0955 30.2602 12.2474 30.1057 12.3965C29.9513 12.5457 29.7528 12.6695 29.5105 12.768C29.2681 12.8666 28.9778 12.9159 28.6396 12.9159ZM28.8992 11.9571C29.2295 11.9571 29.5118 11.8918 29.7462 11.7613C29.9832 11.6308 30.163 11.4603 30.2855 11.2499C30.4107 11.0369 30.4733 10.8091 30.4733 10.5668V9.77577C30.4307 9.81838 30.3481 9.85833 30.2256 9.89562C30.1057 9.93024 29.9686 9.96087 29.8141 9.9875C29.6596 10.0115 29.5091 10.0341 29.3627 10.0554C29.2162 10.0741 29.0937 10.09 28.9951 10.1034C28.7634 10.1327 28.5517 10.1819 28.3599 10.2512C28.1708 10.3204 28.019 10.4203 27.9045 10.5508C27.7926 10.6786 27.7367 10.8491 27.7367 11.0622C27.7367 11.3578 27.8459 11.5815 28.0643 11.7333C28.2827 11.8825 28.561 11.9571 28.8992 11.9571ZM34.4533 9.13656V12.78H33.2588V6.64367H34.4054V7.64242H34.4813C34.6224 7.31749 34.8435 7.05649 35.1445 6.8594C35.4481 6.66231 35.8303 6.56377 36.291 6.56377C36.7092 6.56377 37.0754 6.65166 37.3897 6.82744C37.7039 7.00055 37.9476 7.2589 38.1208 7.60247C38.2939 7.94604 38.3804 8.37085 38.3804 8.87689V12.78H37.1859V9.02071C37.1859 8.57593 37.0701 8.22836 36.8384 7.97801C36.6066 7.72499 36.2884 7.59848 35.8835 7.59848C35.6066 7.59848 35.3602 7.6584 35.1445 7.77825C34.9314 7.8981 34.7623 8.07389 34.6371 8.3056C34.5146 8.53465 34.4533 8.81163 34.4533 9.13656ZM41.0811 10.6986L41.0731 9.24043H41.2808L43.7258 6.64367H45.156L42.3675 9.59999H42.1797L41.0811 10.6986ZM39.9824 12.78V4.59821H41.177V12.78H39.9824ZM43.8576 12.78L41.6604 9.86366L42.4833 9.0287L45.3238 12.78H43.8576ZM50.8429 8.1418L49.7603 8.33356C49.715 8.19507 49.6431 8.06323 49.5445 7.93805C49.4487 7.81288 49.3182 7.71034 49.153 7.63044C48.9879 7.55054 48.7815 7.51059 48.5338 7.51059C48.1956 7.51059 47.9132 7.58649 47.6869 7.7383C47.4605 7.88745 47.3473 8.08054 47.3473 8.31758C47.3473 8.52266 47.4232 8.68779 47.575 8.81297C47.7268 8.93814 47.9718 9.04068 48.3101 9.12058L49.2849 9.3443C49.8495 9.47481 50.2703 9.67589 50.5473 9.94755C50.8243 10.2192 50.9628 10.5721 50.9628 11.0062C50.9628 11.3738 50.8562 11.7014 50.6432 11.989C50.4328 12.274 50.1385 12.4977 49.7603 12.6602C49.3847 12.8226 48.9493 12.9039 48.4539 12.9039C47.7668 12.9039 47.2061 12.7574 46.772 12.4644C46.3379 12.1688 46.0715 11.7493 45.973 11.206L47.1276 11.0302C47.1995 11.3312 47.3473 11.5589 47.571 11.7134C47.7947 11.8652 48.0864 11.9411 48.4459 11.9411C48.8374 11.9411 49.1504 11.8598 49.3847 11.6974C49.6191 11.5322 49.7363 11.3312 49.7363 11.0941C49.7363 10.9024 49.6644 10.7412 49.5206 10.6107C49.3794 10.4802 49.1624 10.3817 48.8694 10.3151L47.8307 10.0874C47.2581 9.95688 46.8346 9.74913 46.5603 9.46416C46.2886 9.17918 46.1528 8.81829 46.1528 8.3815C46.1528 8.01929 46.254 7.70235 46.4564 7.43069C46.6588 7.15902 46.9385 6.94729 47.2953 6.79548C47.6522 6.641 48.0611 6.56377 48.5218 6.56377C49.185 6.56377 49.707 6.70759 50.0879 6.99523C50.4687 7.28021 50.7204 7.6624 50.8429 8.1418Z" fill="white"/>
</svg>
