<svg width="66" height="21" viewBox="0 0 66 21" fill="none" xmlns="http://www.w3.org/2000/svg">
<g clip-path="url(#clip0_8_49)">
<g clip-path="url(#clip1_8_49)">
<path d="M15.5001 12.1381C15.8961 12.1381 16.2128 11.8015 16.2128 11.4253C16.2128 11.0294 15.8961 10.7128 15.5001 10.7128C15.1042 10.7128 14.7875 11.0294 14.7875 11.4253C14.7875 11.8213 15.1042 12.1381 15.5001 12.1381ZM11.9877 12.1381C12.3836 12.1381 12.7004 11.8015 12.7004 11.4253C12.7004 11.0294 12.3836 10.7128 11.9877 10.7128C11.5918 10.7128 11.2751 11.0294 11.2751 11.4253C11.2751 11.8213 11.5918 12.1381 11.9877 12.1381ZM17.1999 16.1382C17.1024 16.1967 17.0439 16.2943 17.0634 16.4308C17.0634 16.4697 17.0634 16.5088 17.0829 16.5477C17.1609 16.8793 17.3168 17.406 17.3168 17.4255C17.3168 17.484 17.3363 17.523 17.3363 17.562C17.3363 17.6596 17.2584 17.7376 17.1609 17.7376C17.1218 17.7376 17.1024 17.7181 17.0634 17.6986L15.9134 17.0353C15.8354 16.9964 15.738 16.9573 15.6405 16.9573C15.5821 16.9573 15.5236 16.9573 15.4847 16.9769C14.9389 17.1329 14.3736 17.211 13.7694 17.211C10.8652 17.211 8.52619 15.2605 8.52619 12.8419C8.52619 10.4234 10.8652 8.47291 13.7694 8.47291C16.6736 8.47291 19.0126 10.4234 19.0126 12.8419C19.0126 14.1487 18.3109 15.3385 17.1999 16.1382ZM13.9909 7.68266C13.9174 7.6804 13.8435 7.67926 13.7694 7.67926C10.4561 7.67926 7.73254 9.94934 7.73254 12.8419C7.73254 13.2813 7.79538 13.7063 7.91358 14.1112H7.84283C7.13953 14.1112 6.43624 13.9943 5.79154 13.8192C5.73294 13.7996 5.67433 13.7996 5.61573 13.7996C5.4985 13.7996 5.38129 13.8387 5.28361 13.8971L3.89656 14.6952C3.85749 14.7148 3.81841 14.7342 3.77934 14.7342C3.66212 14.7342 3.56445 14.6369 3.56445 14.52C3.56445 14.4616 3.58398 14.4227 3.60352 14.3643C3.62306 14.3448 3.79888 13.7024 3.89656 13.313C3.89656 13.274 3.91609 13.2156 3.91609 13.1767C3.91609 13.021 3.83795 12.9041 3.74027 12.8262C2.39229 11.8723 1.55225 10.4511 1.55225 8.87408C1.55225 5.97322 4.38496 3.63696 7.86236 3.63696C10.8496 3.63696 13.3612 5.35804 13.9909 7.68266ZM9.90059 8.01477C10.3552 8.01477 10.7152 7.63594 10.7152 7.2003C10.7152 6.7457 10.3552 6.38582 9.90059 6.38582C9.44599 6.38582 9.08615 6.7457 9.08615 7.2003C9.08615 7.65489 9.44599 8.01477 9.90059 8.01477ZM5.72643 8.01477C6.18102 8.01477 6.5409 7.63594 6.5409 7.2003C6.5409 6.7457 6.18102 6.38582 5.72643 6.38582C5.27184 6.38582 4.91195 6.7457 4.91195 7.2003C4.91195 7.65489 5.27184 8.01477 5.72643 8.01477Z" fill="white"/>
</g>
</g>
<path d="M22.9474 14.78L20.5269 6.05276H21.9119L23.6122 12.8113H23.6931L25.4616 6.05276H26.8338L28.6022 12.8155H28.6832L30.3792 6.05276H31.7684L29.3437 14.78H28.0184L26.1818 8.2431H26.1136L24.2769 14.78H22.9474ZM35.0433 14.9121C34.3984 14.9121 33.843 14.7743 33.3771 14.4988C32.914 14.2204 32.5561 13.8297 32.3032 13.3269C32.0532 12.8212 31.9282 12.2289 31.9282 11.5499C31.9282 10.8795 32.0532 10.2886 32.3032 9.77719C32.5561 9.26582 32.9083 8.86668 33.36 8.57974C33.8146 8.29281 34.3458 8.14935 34.9538 8.14935C35.3231 8.14935 35.6811 8.21043 36.0277 8.33259C36.3742 8.45475 36.6853 8.64651 36.9609 8.90787C37.2365 9.16923 37.4538 9.50872 37.6129 9.92634C37.772 10.3411 37.8515 10.8454 37.8515 11.4391V11.8908H32.6484V10.9363H36.6029C36.6029 10.6011 36.5348 10.3042 36.3984 10.0457C36.262 9.78429 36.0703 9.57832 35.8231 9.42776C35.5788 9.27719 35.2919 9.2019 34.9623 9.2019C34.6044 9.2019 34.2919 9.28997 34.0248 9.46611C33.7606 9.6394 33.5561 9.86668 33.4112 10.1479C33.2691 10.4263 33.1981 10.7289 33.1981 11.0556V11.8013C33.1981 12.2388 33.2748 12.611 33.4282 12.9178C33.5845 13.2246 33.8018 13.459 34.0802 13.6209C34.3586 13.78 34.6839 13.8596 35.0561 13.8596C35.2975 13.8596 35.5177 13.8255 35.7166 13.7573C35.9154 13.6863 36.0873 13.5812 36.2322 13.442C36.3771 13.3028 36.4879 13.1309 36.5646 12.9263L37.7706 13.1437C37.674 13.4988 37.5007 13.8099 37.2507 14.0769C37.0035 14.3411 36.6924 14.5471 36.3174 14.6948C35.9453 14.8397 35.5206 14.9121 35.0433 14.9121ZM46.6161 8.89082H45.2865C45.2354 8.60673 45.1402 8.35673 45.001 8.14082C44.8618 7.92492 44.6914 7.74168 44.4897 7.59111C44.288 7.44054 44.0621 7.3269 43.8121 7.2502C43.5649 7.1735 43.3022 7.13514 43.0237 7.13514C42.5209 7.13514 42.0706 7.26156 41.6729 7.5144C41.278 7.76725 40.9655 8.13798 40.7354 8.62662C40.5081 9.11526 40.3945 9.71185 40.3945 10.4164C40.3945 11.1266 40.5081 11.7261 40.7354 12.2147C40.9655 12.7033 41.2794 13.0726 41.6772 13.3226C42.0749 13.5726 42.5223 13.6976 43.0195 13.6976C43.2951 13.6976 43.5564 13.6607 43.8036 13.5868C44.0536 13.5101 44.2794 13.3979 44.4811 13.2502C44.6828 13.1025 44.8533 12.9221 44.9925 12.709C45.1345 12.4931 45.2326 12.2459 45.2865 11.9675L46.6161 11.9718C46.5451 12.4008 46.4073 12.7957 46.2027 13.1564C46.001 13.5144 45.7411 13.8241 45.4229 14.0854C45.1076 14.3439 44.7468 14.5442 44.3405 14.6863C43.9343 14.8283 43.4911 14.8993 43.011 14.8993C42.2553 14.8993 41.582 14.7204 40.9911 14.3624C40.4002 14.0016 39.9343 13.486 39.5934 12.8155C39.2553 12.1451 39.0862 11.3454 39.0862 10.4164C39.0862 9.48457 39.2567 8.68486 39.5976 8.01724C39.9385 7.34679 40.4044 6.83259 40.9953 6.47463C41.5862 6.11384 42.2581 5.93344 43.011 5.93344C43.474 5.93344 43.9059 6.0002 44.3064 6.13372C44.7098 6.2644 45.072 6.45759 45.3931 6.71327C45.7141 6.96611 45.9797 7.27577 46.1899 7.64224C46.4002 8.00588 46.5422 8.42207 46.6161 8.89082ZM49.3636 10.8937V14.78H48.0894V6.05276H49.3465V9.29992H49.4275C49.5809 8.94764 49.8153 8.66781 50.1306 8.46043C50.446 8.25304 50.8579 8.14935 51.3664 8.14935C51.8153 8.14935 52.2073 8.24168 52.5426 8.42634C52.8806 8.611 53.142 8.88656 53.3267 9.25304C53.5142 9.61668 53.6079 10.0712 53.6079 10.6167V14.78H52.3338V10.7701C52.3338 10.29 52.2102 9.91781 51.963 9.65361C51.7159 9.38656 51.3721 9.25304 50.9318 9.25304C50.6306 9.25304 50.3608 9.31696 50.1221 9.4448C49.8863 9.57264 49.7002 9.76014 49.5639 10.0073C49.4304 10.2516 49.3636 10.5471 49.3636 10.8937ZM57.213 14.9249C56.7983 14.9249 56.4233 14.8482 56.088 14.6948C55.7528 14.5386 55.4872 14.3127 55.2911 14.0172C55.098 13.7218 55.0014 13.3596 55.0014 12.9306C55.0014 12.5613 55.0724 12.2573 55.2144 12.0187C55.3565 11.78 55.5483 11.5911 55.7897 11.4519C56.0312 11.3127 56.3011 11.2076 56.5994 11.1366C56.8977 11.0655 57.2017 11.0116 57.5113 10.9746C57.9034 10.9292 58.2215 10.8922 58.4659 10.8638C58.7102 10.8326 58.8877 10.7829 58.9985 10.7147C59.1093 10.6465 59.1647 10.5357 59.1647 10.3823V10.3525C59.1647 9.98031 59.0596 9.69196 58.8494 9.48742C58.642 9.28287 58.3323 9.1806 57.9204 9.1806C57.4914 9.1806 57.1534 9.27577 56.9062 9.46611C56.6619 9.65361 56.4929 9.86242 56.3991 10.0925L55.2017 9.8198C55.3437 9.42207 55.5511 9.10105 55.8238 8.85673C56.0994 8.60957 56.4161 8.4306 56.7741 8.3198C57.1321 8.20617 57.5085 8.14935 57.9034 8.14935C58.1647 8.14935 58.4417 8.1806 58.7343 8.2431C59.0298 8.30276 59.3054 8.41355 59.561 8.57548C59.8196 8.73742 60.0312 8.96895 60.196 9.27009C60.3608 9.56838 60.4431 9.95617 60.4431 10.4334V14.78H59.1988V13.8851H59.1477C59.0653 14.0499 58.9417 14.2118 58.7769 14.3709C58.6122 14.53 58.4005 14.6621 58.142 14.7672C57.8835 14.8724 57.5738 14.9249 57.213 14.9249ZM57.49 13.9022C57.8423 13.9022 58.1434 13.8326 58.3934 13.6934C58.6463 13.5542 58.838 13.3724 58.9687 13.1479C59.1022 12.9207 59.169 12.6778 59.169 12.4192V11.5755C59.1235 11.6209 59.0355 11.6636 58.9048 11.7033C58.7769 11.7403 58.6306 11.7729 58.4659 11.8013C58.3011 11.8269 58.1406 11.8511 57.9843 11.8738C57.8281 11.8937 57.6974 11.9107 57.5923 11.9249C57.3451 11.9562 57.1193 12.0087 56.9147 12.0826C56.713 12.1564 56.5511 12.263 56.4289 12.4022C56.3096 12.5386 56.25 12.7204 56.25 12.9476C56.25 13.263 56.3664 13.5016 56.5994 13.6636C56.8323 13.8226 57.1292 13.9022 57.49 13.9022ZM65.1956 8.23457V9.2573H61.6203V8.23457H65.1956ZM62.5791 6.66639H63.8533V12.8582C63.8533 13.1053 63.8902 13.2914 63.9641 13.4164C64.038 13.5386 64.1331 13.6224 64.2496 13.6678C64.3689 13.7104 64.4982 13.7317 64.6374 13.7317C64.7397 13.7317 64.8291 13.7246 64.9059 13.7104C64.9826 13.6962 65.0422 13.6849 65.0848 13.6763L65.3149 14.7289C65.2411 14.7573 65.136 14.7857 64.9996 14.8141C64.8632 14.8454 64.6928 14.8624 64.4882 14.8653C64.153 14.8709 63.8405 14.8113 63.5507 14.6863C63.261 14.5613 63.0266 14.3681 62.8476 14.1067C62.6686 13.8454 62.5791 13.5172 62.5791 13.1224V6.66639Z" fill="white"/>
<defs>
<clipPath id="clip0_8_49">
<rect width="20" height="20" fill="white" transform="translate(0.279785 0.780029)"/>
</clipPath>
<clipPath id="clip1_8_49">
<rect width="20" height="20" fill="white" transform="translate(0.279785 0.780029)"/>
</clipPath>
</defs>
</svg>
