<svg width="54" height="18" viewBox="0 0 54 18" fill="none" xmlns="http://www.w3.org/2000/svg">
<path d="M16.4895 11.5778C13.2982 10.6172 11.4431 10.0445 10.9242 9.85983C11.3975 9.04653 11.7775 8.1132 12.0242 7.0932H9.30424V6.1732H12.6375V5.60653H9.30424V4.06653H8.0242C7.79087 4.06653 7.7642 4.2732 7.7642 4.2732V5.59987H4.63754V6.16653H7.7642V7.08653H5.2042V7.59987H10.3908C10.2042 8.24653 9.95084 8.85983 9.65084 9.41323C8.47754 9.02653 7.8242 8.75987 6.39087 8.62653C3.67754 8.36653 3.05087 9.85983 2.95087 10.7732C2.8042 12.1665 4.03754 13.2998 5.87754 13.2998C7.71754 13.2998 8.94424 12.4465 10.1108 11.0332C11.083 11.4981 12.8924 12.3043 15.5391 13.4517C14.0404 15.6613 11.5085 17.1132 8.63754 17.1132C4.03516 17.1132 0.304199 13.3822 0.304199 8.77987C0.304199 4.17749 4.03516 0.446533 8.63754 0.446533C13.2398 0.446533 16.9708 4.17749 16.9708 8.77987C16.9708 9.76133 16.8012 10.7033 16.4895 11.5778ZM5.6642 12.4198C3.71754 12.4198 3.41087 11.1865 3.51087 10.6732C3.61087 10.1598 4.17754 9.49323 5.2642 9.49323C6.51087 9.49323 7.6242 9.81323 8.96424 10.4598C8.01754 11.6932 6.8642 12.4198 5.6642 12.4198Z" fill="white"/>
<path d="M20.3097 12.78H18.9338L22.0253 4.18912H23.5229L26.6144 12.78H25.2385L22.8097 5.74958H22.7426L20.3097 12.78ZM20.5404 9.41582H25.0036V10.5065H20.5404V9.41582ZM29.0086 4.18912V12.78H27.7543V4.18912H29.0086ZM30.6959 12.78V6.33685H31.9502V12.78H30.6959ZM31.3293 5.34268C31.1112 5.34268 30.9239 5.26997 30.7672 5.12456C30.6134 4.97634 30.5365 4.80016 30.5365 4.59601C30.5365 4.38907 30.6134 4.21289 30.7672 4.06747C30.9239 3.91926 31.1112 3.84515 31.3293 3.84515C31.5475 3.84515 31.7334 3.91926 31.8873 4.06747C32.0439 4.21289 32.1222 4.38907 32.1222 4.59601C32.1222 4.80016 32.0439 4.97634 31.8873 5.12456C31.7334 5.26997 31.5475 5.34268 31.3293 5.34268ZM33.6375 15.1962V6.33685H34.8624V7.38135H34.9673C35.04 7.24711 35.1448 7.09191 35.2819 6.91573C35.4189 6.73955 35.6091 6.58574 35.8524 6.4543C36.0957 6.32007 36.4173 6.25295 36.8172 6.25295C37.3373 6.25295 37.8015 6.38439 38.2098 6.64726C38.6181 6.91013 38.9383 7.28906 39.1704 7.78405C39.4053 8.27903 39.5228 8.87469 39.5228 9.57102C39.5228 10.2674 39.4067 10.8644 39.1746 11.3622C38.9425 11.8572 38.6237 12.2389 38.2182 12.5074C37.8127 12.773 37.3499 12.9059 36.8298 12.9059C36.4382 12.9059 36.118 12.8402 35.8691 12.7087C35.6231 12.5773 35.4301 12.4235 35.2903 12.2473C35.1504 12.0711 35.0428 11.9145 34.9673 11.7775H34.8918V15.1962H33.6375ZM34.8666 9.55844C34.8666 10.0115 34.9323 10.4086 35.0637 10.7498C35.1952 11.0909 35.3853 11.358 35.6342 11.551C35.8831 11.7411 36.1879 11.8362 36.5487 11.8362C36.9234 11.8362 37.2366 11.7369 37.4883 11.5384C37.74 11.337 37.9302 11.0644 38.0588 10.7204C38.1903 10.3764 38.256 9.9891 38.256 9.55844C38.256 9.13337 38.1917 8.75164 38.063 8.41326C37.9372 8.07488 37.747 7.80782 37.4925 7.61206C37.2408 7.4163 36.9262 7.31843 36.5487 7.31843C36.1852 7.31843 35.8775 7.41211 35.6258 7.59948C35.377 7.78684 35.1882 8.04832 35.0596 8.3839C34.9309 8.71948 34.8666 9.111 34.8666 9.55844ZM42.8031 12.9227C42.3948 12.9227 42.0257 12.8471 41.6957 12.6961C41.3657 12.5423 41.1042 12.32 40.9113 12.0292C40.7211 11.7383 40.626 11.3818 40.626 10.9595C40.626 10.5959 40.6959 10.2967 40.8358 10.0618C40.9756 9.8269 41.1644 9.64094 41.4021 9.50391C41.6398 9.36688 41.9054 9.26341 42.1991 9.19349C42.4927 9.12358 42.7919 9.07045 43.0968 9.03409C43.4827 8.98935 43.7959 8.95299 44.0364 8.92503C44.2769 8.89426 44.4517 8.84533 44.5607 8.77821C44.6698 8.71109 44.7243 8.60203 44.7243 8.45102V8.42165C44.7243 8.05531 44.6209 7.77146 44.4139 7.57011C44.2098 7.36876 43.9049 7.26809 43.4995 7.26809C43.0772 7.26809 42.7444 7.36177 42.5011 7.54914C42.2606 7.73371 42.0942 7.93925 42.0019 8.16577L40.8232 7.89731C40.963 7.50579 41.1672 7.18979 41.4356 6.94929C41.7069 6.70599 42.0187 6.52981 42.3711 6.42074C42.7234 6.30888 43.094 6.25295 43.4827 6.25295C43.74 6.25295 44.0126 6.28371 44.3007 6.34524C44.5915 6.40396 44.8628 6.51303 45.1144 6.67243C45.3689 6.83183 45.5773 7.05975 45.7395 7.35618C45.9017 7.64981 45.9828 8.03154 45.9828 8.50135V12.78H44.7579V11.8991H44.7075C44.6264 12.0613 44.5048 12.2207 44.3426 12.3773C44.1804 12.5339 43.9721 12.664 43.7176 12.7674C43.4631 12.8709 43.1583 12.9227 42.8031 12.9227ZM43.0758 11.9159C43.4225 11.9159 43.719 11.8474 43.9651 11.7104C44.214 11.5733 44.4027 11.3944 44.5314 11.1734C44.6628 10.9497 44.7285 10.7106 44.7285 10.4561V9.62555C44.6838 9.6703 44.5971 9.71225 44.4684 9.7514C44.3426 9.78775 44.1986 9.81991 44.0364 9.84788C43.8742 9.87305 43.7162 9.89682 43.5624 9.91919C43.4086 9.93876 43.2799 9.95554 43.1765 9.96953C42.9332 10.0003 42.7108 10.052 42.5095 10.1247C42.3109 10.1974 42.1515 10.3023 42.0313 10.4393C41.9138 10.5736 41.8551 10.7526 41.8551 10.9763C41.8551 11.2867 41.9698 11.5216 42.1991 11.681C42.4284 11.8376 42.7206 11.9159 43.0758 11.9159ZM48.2154 15.1962C48.0281 15.1962 47.8575 15.1808 47.7037 15.1501C47.5499 15.1221 47.4352 15.0914 47.3597 15.0578L47.6617 14.0301C47.891 14.0916 48.0952 14.1182 48.2742 14.1098C48.4531 14.1014 48.6111 14.0343 48.7482 13.9084C48.888 13.7826 49.011 13.577 49.1173 13.2918L49.2725 12.8639L46.9151 6.33685H48.2574L49.8891 11.337H49.9563L51.588 6.33685H52.9346L50.2793 13.64C50.1562 13.9755 49.9996 14.2594 49.8094 14.4915C49.6193 14.7264 49.3928 14.9026 49.1299 15.02C48.867 15.1375 48.5622 15.1962 48.2154 15.1962Z" fill="white"/>
</svg>
