<svg width="64" height="21" viewBox="0 0 64 21" fill="none" xmlns="http://www.w3.org/2000/svg">
<g clip-path="url(#clip0_8_51)">
<g clip-path="url(#clip1_8_51)">
<path d="M9.82836 6.37964C9.75939 6.65495 9.14014 10.1717 9.14014 10.1717H10.0709C11.2761 10.1717 12.172 9.28591 12.172 7.93971C12.172 6.99244 11.552 6.37964 10.5901 6.37964H9.83215H9.82836Z" stroke="white" stroke-width="1.18688" stroke-linecap="round" stroke-linejoin="round"/>
<path d="M13.5266 11.7391L14.8841 15.196C15.2896 16.2214 15.7405 16.7189 16.1794 17.048C15.4214 17.4272 14.1966 17.4439 13.447 17.425C12.7095 17.425 11.7188 17.2429 11.0928 15.4531L10.1157 12.8767H8.9788C8.9788 12.8767 8.62635 14.5779 8.48613 15.3052C8.4164 15.8391 8.53085 16.5141 8.59982 17.048C7.84187 17.4272 6.70494 17.4272 5.94699 17.4272C5.39596 17.4272 4.84796 17.2392 4.81006 16.2896V16.0537C4.81149 15.6946 4.84933 15.3366 4.923 14.9851C5.49146 12.2723 5.95836 9.54728 6.32293 6.80938C6.49726 5.50338 6.32293 4.15491 6.32293 4.15491C6.76634 4.04569 8.37623 3.69834 11.4672 3.79769C12.4127 3.81081 13.3479 3.99637 14.2269 4.34527C14.4604 4.45752 14.6824 4.59252 14.8901 4.74799C15.0826 4.90878 15.2668 5.07942 15.4411 5.25917C15.6685 5.54888 15.8542 5.86894 15.9922 6.20947C16.1097 6.57579 16.1718 6.95803 16.1764 7.34179C16.1764 9.20902 15.1061 10.8881 13.5235 11.7391H13.5266Z" stroke="white" stroke-width="1.18688" stroke-linecap="round" stroke-linejoin="round"/>
</g>
</g>
<path d="M21.7539 14.78V6.18912H24.8161C25.4816 6.18912 26.034 6.30378 26.473 6.53309C26.9149 6.76241 27.2449 7.07981 27.463 7.48531C27.6811 7.88801 27.7902 8.35363 27.7902 8.88217C27.7902 9.40791 27.6797 9.87074 27.4588 10.2706C27.2407 10.6677 26.9107 10.9768 26.4688 11.1977C26.0298 11.4186 25.4775 11.5291 24.8119 11.5291H22.4922V10.4133H24.6944C25.1139 10.4133 25.4551 10.3531 25.718 10.2329C25.9836 10.1126 26.178 9.93785 26.301 9.70854C26.4241 9.47923 26.4856 9.20377 26.4856 8.88217C26.4856 8.55777 26.4227 8.27672 26.2968 8.03902C26.1738 7.80131 25.9794 7.61954 25.7138 7.4937C25.4509 7.36506 25.1055 7.30074 24.6776 7.30074H23.0501V14.78H21.7539ZM25.9948 10.9041L28.1174 14.78H26.6408L24.5602 10.9041H25.9948ZM31.9629 14.9101C31.3281 14.9101 30.7814 14.7744 30.3228 14.5032C29.8669 14.2291 29.5146 13.8446 29.2657 13.3496C29.0196 12.8518 28.8965 12.2688 28.8965 11.6004C28.8965 10.9404 29.0196 10.3587 29.2657 9.85536C29.5146 9.35198 29.8613 8.95907 30.306 8.67662C30.7534 8.39418 31.2764 8.25295 31.8748 8.25295C32.2384 8.25295 32.5907 8.31308 32.9319 8.43333C33.2731 8.55358 33.5793 8.74234 33.8506 8.99962C34.1218 9.2569 34.3358 9.59109 34.4924 10.0022C34.649 10.4105 34.7273 10.9068 34.7273 11.4913V11.936H29.6055V10.9963H33.4982C33.4982 10.6663 33.4311 10.3741 33.2969 10.1196C33.1626 9.86235 32.9739 9.6596 32.7306 9.51139C32.4901 9.36317 32.2076 9.28906 31.8832 9.28906C31.5309 9.28906 31.2233 9.37575 30.9604 9.54914C30.7003 9.71973 30.499 9.94345 30.3563 10.2203C30.2165 10.4944 30.1466 10.7922 30.1466 11.1138V11.8479C30.1466 12.2785 30.2221 12.6449 30.3731 12.9469C30.5269 13.2489 30.7409 13.4796 31.0149 13.639C31.289 13.7957 31.6092 13.874 31.9755 13.874C32.2132 13.874 32.4299 13.8404 32.6257 13.7733C32.8215 13.7034 32.9907 13.5999 33.1333 13.4629C33.2759 13.3258 33.385 13.1566 33.4605 12.9553L34.6476 13.1692C34.5525 13.5188 34.3819 13.825 34.1358 14.0879C33.8925 14.348 33.5863 14.5507 33.2172 14.6961C32.8508 14.8388 32.4327 14.9101 31.9629 14.9101ZM41.4463 8.33685L39.1098 14.78H37.7675L35.4268 8.33685H36.7733L38.4051 13.2951H38.4722L40.0998 8.33685H41.4463ZM45.1199 14.9101C44.5158 14.9101 43.9887 14.7716 43.5384 14.4948C43.0882 14.2179 42.7386 13.8306 42.4897 13.3328C42.2408 12.835 42.1164 12.2534 42.1164 11.5878C42.1164 10.9194 42.2408 10.335 42.4897 9.83438C42.7386 9.33381 43.0882 8.94509 43.5384 8.66824C43.9887 8.39138 44.5158 8.25295 45.1199 8.25295C45.7239 8.25295 46.251 8.39138 46.7013 8.66824C47.1515 8.94509 47.5011 9.33381 47.75 9.83438C47.9989 10.335 48.1233 10.9194 48.1233 11.5878C48.1233 12.2534 47.9989 12.835 47.75 13.3328C47.5011 13.8306 47.1515 14.2179 46.7013 14.4948C46.251 14.7716 45.7239 14.9101 45.1199 14.9101ZM45.1241 13.8572C45.5156 13.8572 45.84 13.7537 46.0972 13.5468C46.3545 13.3398 46.5447 13.0644 46.6677 12.7204C46.7936 12.3764 46.8565 11.9975 46.8565 11.5836C46.8565 11.1725 46.7936 10.795 46.6677 10.451C46.5447 10.1042 46.3545 9.82599 46.0972 9.61626C45.84 9.40652 45.5156 9.30165 45.1241 9.30165C44.7297 9.30165 44.4025 9.40652 44.1425 9.61626C43.8852 9.82599 43.6936 10.1042 43.5678 10.451C43.4447 10.795 43.3832 11.1725 43.3832 11.5836C43.3832 11.9975 43.4447 12.3764 43.5678 12.7204C43.6936 13.0644 43.8852 13.3398 44.1425 13.5468C44.4025 13.7537 44.7297 13.8572 45.1241 13.8572ZM50.7776 6.18912V14.78H49.5233V6.18912H50.7776ZM56.5464 12.108V8.33685H57.8049V14.78H56.5716V13.6642H56.5045C56.3563 14.0082 56.1186 14.2948 55.7914 14.5241C55.467 14.7507 55.0629 14.8639 54.5791 14.8639C54.1652 14.8639 53.7989 14.773 53.4801 14.5913C53.164 14.4067 52.9152 14.134 52.7334 13.7733C52.5544 13.4125 52.4649 12.9665 52.4649 12.4351V8.33685H53.7192V12.2841C53.7192 12.7232 53.8408 13.0728 54.0841 13.3328C54.3274 13.5929 54.6434 13.7229 55.0321 13.7229C55.267 13.7229 55.5005 13.6642 55.7326 13.5468C55.9676 13.4293 56.1619 13.2517 56.3157 13.014C56.4723 12.7763 56.5492 12.4743 56.5464 12.108ZM62.4978 8.33685V9.34359H58.9784V8.33685H62.4978ZM59.9222 6.79317H61.1764V12.8882C61.1764 13.1315 61.2128 13.3147 61.2855 13.4377C61.3582 13.558 61.4519 13.6404 61.5665 13.6852C61.684 13.7271 61.8112 13.7481 61.9483 13.7481C62.0489 13.7481 62.137 13.7411 62.2125 13.7271C62.288 13.7132 62.3468 13.702 62.3887 13.6936L62.6152 14.7297C62.5425 14.7577 62.4391 14.7856 62.3048 14.8136C62.1706 14.8443 62.0028 14.8611 61.8014 14.8639C61.4715 14.8695 61.1638 14.8108 60.8786 14.6877C60.5934 14.5647 60.3626 14.3745 60.1865 14.1173C60.0103 13.86 59.9222 13.537 59.9222 13.1483V6.79317Z" fill="white"/>
<defs>
<clipPath id="clip0_8_51">
<rect width="20" height="20" fill="white" transform="translate(0.810059 0.780029)"/>
</clipPath>
<clipPath id="clip1_8_51">
<rect width="20" height="20" fill="white" transform="translate(0.810059 0.780029)"/>
</clipPath>
</defs>
</svg>
