<svg width="73" height="15" viewBox="0 0 73 15" fill="none" xmlns="http://www.w3.org/2000/svg">
<path d="M18.1067 2.03002H14.1224C14.0755 2.02221 14.0208 2.0144 13.9583 2.0144H8.67702C8.63015 2.0144 8.59109 2.01439 8.54421 2.02221H4.20046C3.55984 2.02221 2.91921 2.54565 2.76296 3.19408L0.622334 12.3816C0.473897 13.0222 0.872338 13.5456 1.51296 13.5456H6.11452C6.1614 13.5456 6.20046 13.5456 6.24734 13.5378H10.7786C10.138 13.5378 9.73952 13.0144 9.88796 12.3738L10.1693 11.1628H10.1224C9.99736 11.1628 9.90356 11.1628 9.84106 11.155C9.77858 11.1472 9.71609 11.155 9.67702 11.1238C9.63796 11.0925 9.58327 11.0534 9.58327 11.0066C9.58327 10.9675 9.60671 10.8972 9.63015 10.8112L10.3489 8.43622H10.8099L10.9739 7.72533C10.888 7.72533 10.8021 7.72533 10.6693 7.73314L10.6614 7.71752C10.6849 7.61596 10.7083 7.5144 10.7318 7.41283L10.763 7.27221C10.8099 7.05346 10.8646 6.79564 10.8646 6.71752C10.8646 6.67064 10.888 6.55346 10.7552 6.55346C10.7005 6.55346 10.638 6.5769 10.5833 6.60814C10.5521 6.72533 10.4818 7.05346 10.4505 7.20189C10.388 7.51439 10.3802 7.55346 10.3489 7.70971L10.3255 7.73314C10.0833 7.73314 10.0052 7.73314 9.73171 7.74096L9.71609 7.71752C9.76296 7.53002 9.80984 7.34252 9.84886 7.15502C9.96606 6.64721 9.98956 6.45189 10.0208 6.19408L10.0443 6.17846C10.3099 6.1394 10.3802 6.13158 10.6614 6.07689L10.6849 6.10814L10.638 6.27221C10.6849 6.24096 10.7318 6.21752 10.7864 6.18627C10.9193 6.12377 11.0755 6.10033 11.1614 6.10033C11.2161 6.10033 11.2786 6.10814 11.3333 6.13158L12.013 3.2019C12.1458 2.62377 12.6849 2.13939 13.2552 2.04564H13.2864H13.4583C12.888 2.13939 12.3489 2.61596 12.2161 3.2019L11.4896 6.31908C11.5208 6.44408 11.4896 6.60033 11.4193 6.8894L11.3802 7.05346C11.3021 7.40502 11.2943 7.46752 11.2552 7.70971L11.2239 7.73314C11.2005 7.73314 11.1771 7.73314 11.1536 7.73314L10.9583 8.56122C10.9818 8.54562 11.0052 8.53782 11.0286 8.52222C11.138 8.48312 11.3958 8.44412 11.3958 8.44412H12.2239L11.9427 9.38162C11.8958 9.54562 11.8411 9.64722 11.8021 9.69412C11.7708 9.74092 11.7318 9.78002 11.6614 9.81912C11.5911 9.85812 11.5286 9.88162 11.4661 9.88162C11.4114 9.88162 11.3255 9.88942 11.2083 9.88942H10.6693L10.4661 10.78L10.6302 10.7644L10.513 11.1706H10.3802L10.0989 12.3816C9.95046 13.0222 10.3489 13.5456 10.9896 13.5456H15.5833C15.5989 13.5456 15.6146 13.5456 15.6224 13.5456C16.1927 13.4519 16.7239 12.9753 16.8567 12.3972L18.9974 3.20971C19.1458 2.55346 18.7474 2.03002 18.1067 2.03002ZM4.41921 7.53783C4.21609 7.66283 3.9114 7.73314 3.59109 7.73314C3.34109 7.73314 2.89577 7.69408 2.73952 7.42064C2.69265 7.33471 2.66921 7.23314 2.66921 7.10814L2.7239 6.68627L2.75515 6.55346L3.09109 5.04564C3.09109 5.04564 3.10671 4.95971 3.11452 4.94408C3.12234 4.95189 3.23952 4.95971 3.88796 4.9519C3.88796 4.95971 3.88796 4.95971 3.88015 4.96752C3.81765 5.14721 3.48171 6.48314 3.48171 6.48314L3.41921 6.88158V6.9519C3.44265 7.14721 3.55984 7.25658 3.77077 7.25658C3.90359 7.25658 4.01296 7.21752 4.11452 7.1394C4.2864 7.00658 4.33327 6.78783 4.40359 6.49096C4.40359 6.49096 4.7239 5.01439 4.73952 4.93627C4.7864 4.94408 4.92702 4.95189 5.39577 4.94408C5.39577 4.95189 5.39577 4.9519 5.38796 4.95971C5.33327 5.1394 4.98171 6.53783 4.98171 6.53783L4.94265 6.68627C4.86452 6.99877 4.77077 7.32689 4.41921 7.53783ZM6.84109 6.87377L6.80202 7.03783C6.73171 7.3894 6.71609 7.4519 6.67702 7.69408L6.65359 7.71752C6.45827 7.71752 6.37234 7.71752 6.18484 7.72533L5.0989 12.3738C4.95046 13.0144 5.3489 13.5378 5.98952 13.5378H5.73952C5.0989 13.5378 4.70046 13.0144 4.8489 12.3738L6.20046 6.55346C6.18484 6.55346 6.16921 6.54564 6.15359 6.54564C6.0989 6.54564 6.0364 6.56908 5.98171 6.60033C5.95046 6.71752 5.88015 7.04565 5.8489 7.19408C5.7864 7.50658 5.77859 7.54564 5.74734 7.7019L5.7239 7.72533C5.48952 7.72533 5.40359 7.72533 5.13015 7.73314L5.11452 7.70971C5.1614 7.52221 5.20827 7.33471 5.24734 7.14721C5.36452 6.6394 5.38796 6.44408 5.41921 6.18627L5.44265 6.17064C5.70827 6.13158 5.77859 6.12377 6.05984 6.06908L6.08327 6.10033L6.0364 6.2644C6.08327 6.23314 6.13015 6.20971 6.18484 6.17846C6.21609 6.16283 6.24734 6.14721 6.2864 6.1394L6.9739 3.19408C7.10671 2.61596 7.64577 2.13158 8.21609 2.03783H8.24734H8.45827H8.46609C7.89577 2.13158 7.35671 2.60815 7.2239 3.19408L6.55202 6.09252C6.55202 6.09252 6.55984 6.09252 6.56765 6.09252C6.69265 6.09252 6.83327 6.13158 6.88796 6.27221C6.95046 6.39721 6.9114 6.56127 6.84109 6.87377ZM7.80984 6.77221C7.7864 6.88158 7.75515 6.99096 7.73171 7.10033C7.67702 7.33471 7.6614 7.42064 7.64577 7.48314C7.63015 7.53783 7.63015 7.5769 7.60671 7.69408L7.59109 7.7019L7.57546 7.70971C7.43484 7.70971 7.3489 7.70971 7.26296 7.70971C7.17702 7.70971 7.09109 7.71752 6.95827 7.71752L6.95046 7.70971L6.94265 7.7019C6.9739 7.56908 6.99734 7.52221 7.01296 7.47533C7.02859 7.42846 7.04421 7.38158 7.07546 7.24096C7.11452 7.06127 7.13796 6.93627 7.1614 6.83471C7.17702 6.73314 7.19265 6.6394 7.20827 6.53783L7.21609 6.53002L7.2239 6.52221C7.36452 6.49877 7.45046 6.49096 7.5364 6.47533C7.63015 6.45971 7.71609 6.44408 7.86452 6.42064L7.87234 6.43627V6.44408C7.86452 6.55346 7.84109 6.66283 7.80984 6.77221ZM7.84109 6.29564C7.68484 6.40502 7.45827 6.42846 7.33327 6.35033C7.20046 6.27221 7.2239 6.12377 7.38015 6.02221C7.5364 5.91283 7.76296 5.8894 7.88796 5.96752C8.01296 6.04564 7.99734 6.19408 7.84109 6.29564ZM8.04421 6.93627C8.0989 6.72533 8.17702 6.49877 8.3489 6.33471C8.5989 6.10814 8.9114 6.09252 9.04421 6.09252C9.26296 6.09252 9.4739 6.1394 9.5989 6.29564C9.67702 6.39721 9.73952 6.56127 9.6614 6.92064C9.63796 7.03002 9.56765 7.28783 9.40359 7.45971C9.20046 7.67846 8.93484 7.74877 8.66921 7.74877C8.56765 7.74877 8.4114 7.73315 8.29421 7.68627C7.93484 7.54565 7.99734 7.15502 8.04421 6.93627ZM9.85676 9.59252H9.27077L9.17702 9.88942H9.77859L9.66921 10.2488H9.06765L8.91921 10.7331C8.90359 10.7878 9.05984 10.7956 9.12234 10.7956L9.41921 10.7566L9.30202 11.155H8.63015C8.57546 11.155 8.5364 11.1472 8.4739 11.1316C8.41921 11.1159 8.39577 11.0925 8.36452 11.0534C8.34109 11.0144 8.30202 10.9831 8.32546 10.8972L8.52077 10.2566H8.18484L8.29421 9.88942H8.63015L8.71609 9.59252H8.38796L8.48952 9.24092H9.96606L9.85676 9.59252ZM10.0833 8.61592L9.97386 8.98312H9.15359L9.05984 9.06122C9.02077 9.10032 9.00515 9.08472 8.95827 9.10812C8.9114 9.13162 8.81765 9.17842 8.68484 9.17842H8.41921L8.52077 8.82692H8.5989C8.66921 8.82692 8.70827 8.81912 8.73171 8.80342C8.75515 8.78782 8.7864 8.74882 8.81765 8.68632L8.96609 8.41282H9.56765L9.46609 8.61592H10.0833ZM14.8021 6.13158C14.9036 6.17064 14.9583 6.23314 15.0052 6.29564C15.0052 6.27221 15.013 6.24877 15.013 6.23314L15.0364 6.21752C15.3099 6.17846 15.388 6.16283 15.6771 6.11596L15.6849 6.1394C15.6302 6.35814 15.5833 6.5769 15.5286 6.79564C15.4271 7.25658 15.3802 7.49096 15.3411 7.72533L15.3177 7.74096C15.0364 7.74096 14.9583 7.74096 14.7005 7.74877L14.6849 7.72533C14.6927 7.69408 14.7005 7.66283 14.7083 7.63158C14.6146 7.70971 14.513 7.76439 14.4036 7.77221C14.3021 7.77221 14.2005 7.7644 14.0833 7.71752C13.7239 7.5769 13.7786 7.18627 13.8333 6.96752C13.8802 6.75658 13.9661 6.53002 14.138 6.37377C14.388 6.14721 14.6771 6.08471 14.8021 6.13158ZM11.6224 7.72533C11.6458 7.6394 12.0677 5.88158 12.0677 5.88158L12.2474 5.05346C12.2474 5.05346 12.263 4.99096 12.2708 4.9519C12.3568 4.95971 12.5521 4.96752 13.0521 4.95971H13.2474C13.638 4.95971 13.9739 4.96752 14.1458 5.2019C14.2161 5.29564 14.2396 5.40502 14.2396 5.52221C14.2396 5.60814 14.2239 5.7019 14.2083 5.77221C14.138 6.0769 13.9818 6.31908 13.7552 6.49096C13.4193 6.73314 12.9974 6.73314 12.6224 6.73314H12.5833C12.5521 6.74877 12.5286 6.78783 12.5286 6.78783C12.5208 6.80346 12.4349 7.16283 12.4349 7.16283C12.4349 7.16283 12.3333 7.65502 12.3177 7.74096C12.2396 7.71752 12.0599 7.71752 11.6224 7.72533ZM11.7864 10.1628C11.763 10.2331 11.7474 10.2878 11.6927 10.3347C11.638 10.3816 11.5677 10.4362 11.4193 10.4362L11.138 10.4441V10.7019C11.138 10.7722 11.1536 10.7644 11.1614 10.78C11.1771 10.7956 11.1849 10.7956 11.2005 10.8034H11.2943L11.5677 10.7878L11.4583 11.1628H11.1458C10.9271 11.1628 10.763 11.155 10.7161 11.1159C10.6614 11.0847 10.6536 11.0378 10.6614 10.9675L10.6693 9.96752H11.1614L11.1536 10.1706H11.2708C11.3099 10.1706 11.3411 10.1706 11.3568 10.155C11.3724 10.1472 11.3802 10.1316 11.388 10.1003L11.4349 9.94412H11.8255L11.7864 10.1628ZM13.5286 11.155H12.9974L13.0364 11.0378H11.9505L12.0599 10.6862H12.1693L12.7396 8.80342L12.8489 8.42062H13.3958L13.3411 8.61592C13.3411 8.61592 13.4896 8.51442 13.6224 8.47532C13.7318 8.44412 14.2943 8.42842 14.4818 8.42842H15.0599L15.0677 8.64722C15.0677 8.68632 15.0989 8.70192 15.1614 8.70192H15.2786L15.1693 9.06122H14.8568C14.5833 9.08472 14.4817 8.96752 14.4896 8.83472L14.4818 8.62382L14.4271 8.81122H14.2396L13.6771 10.6628H13.8255L13.7083 11.0456H13.5599L13.5286 11.155ZM15.9349 9.50662H15.3489L15.2552 9.79562H15.8411L15.7474 10.1159H15.1146L15.0052 10.2488H15.263L15.3255 10.6472C15.3333 10.6862 15.3333 10.7097 15.3489 10.7331C15.3646 10.7488 15.4349 10.7566 15.4818 10.7566H15.5599L15.4427 11.1472H15.2474C15.2161 11.1472 15.1693 11.1472 15.1068 11.1394C15.0443 11.1394 15.0052 11.1003 14.9661 11.0847C14.9271 11.0691 14.8724 11.0222 14.8646 10.9519L14.8021 10.5456L14.513 10.9362C14.4193 11.0612 14.2943 11.155 14.0911 11.155H13.6849L13.7864 10.8034H13.9427C13.9896 10.8034 14.0286 10.7878 14.0521 10.7722C14.0833 10.7566 14.1067 10.7409 14.138 10.7019L14.5521 10.1081H13.9974L14.0911 9.78782H14.7239L14.8177 9.49882H14.1927L14.3021 9.13942H16.0443L15.9349 9.50662ZM16.0521 8.81122C15.9818 8.94412 15.8489 9.03782 15.638 9.03782L15.2786 9.03002L15.3802 8.68632H15.4505C15.4896 8.68632 15.513 8.68622 15.5364 8.67062C15.5521 8.66282 15.5677 8.65502 15.5833 8.63162L15.7083 8.42842C15.888 8.15502 15.9271 8.03782 16.1146 7.73314C16.0833 7.38939 16.0677 7.28002 16.0364 7.05346C16.0208 6.92064 15.9974 6.78002 15.9818 6.64721C15.9505 6.36596 15.9583 6.40502 15.9193 6.23314V6.22533C15.9193 6.21752 15.9193 6.20189 15.9193 6.19408L15.9427 6.17846C16.2161 6.1394 16.2239 6.13158 16.5208 6.07689L16.5443 6.10033L16.5833 6.86596C16.5833 6.88158 16.5833 6.8894 16.5833 6.91283C16.7396 6.56127 16.7396 6.65502 16.9349 6.2019V6.19408L16.9505 6.17846C17.2161 6.1394 17.263 6.13158 17.5521 6.07689L17.5755 6.10033L16.0521 8.81122Z" fill="white"/>
<path d="M26.0731 3.46185H27.3322V8.93284C27.3322 9.515 27.1954 10.0308 26.9219 10.4803C26.6485 10.9271 26.264 11.2791 25.7684 11.5363C25.2729 11.7909 24.6921 11.9181 24.026 11.9181C23.3626 11.9181 22.7832 11.7909 22.2876 11.5363C21.7921 11.2791 21.4076 10.9271 21.1341 10.4803C20.8607 10.0308 20.7239 9.515 20.7239 8.93284V3.46185H21.979V8.8313C21.979 9.20767 22.0615 9.54208 22.2267 9.83452C22.3946 10.127 22.6315 10.3571 22.9375 10.525C23.2435 10.6902 23.6063 10.7727 24.026 10.7727C24.4484 10.7727 24.8126 10.6902 25.1186 10.525C25.4273 10.3571 25.6628 10.127 25.8253 9.83452C25.9905 9.54208 26.0731 9.20767 26.0731 8.8313V3.46185ZM30.2738 8.07584V11.78H29.0594V5.54139H30.225V6.5568H30.3022C30.4457 6.22645 30.6705 5.96109 30.9764 5.76072C31.2851 5.56035 31.6737 5.46016 32.1421 5.46016C32.5672 5.46016 32.9396 5.54952 33.2591 5.72823C33.5786 5.90423 33.8263 6.16688 34.0023 6.51618C34.1784 6.86548 34.2664 7.29736 34.2664 7.81183V11.78H33.0519V7.95805C33.0519 7.50586 32.9341 7.1525 32.6986 6.89797C32.463 6.64074 32.1394 6.51212 31.7278 6.51212C31.4462 6.51212 31.1958 6.57304 30.9764 6.69489C30.7598 6.81674 30.5879 6.99545 30.4606 7.23102C30.3361 7.46389 30.2738 7.74549 30.2738 8.07584ZM35.8951 11.78V5.54139H37.1095V11.78H35.8951ZM36.5084 4.57879C36.2972 4.57879 36.1157 4.50839 35.9641 4.36759C35.8152 4.22408 35.7407 4.05349 35.7407 3.85582C35.7407 3.65545 35.8152 3.48486 35.9641 3.34406C36.1157 3.20055 36.2972 3.1288 36.5084 3.1288C36.7196 3.1288 36.8996 3.20055 37.0486 3.34406C37.2002 3.48486 37.276 3.65545 37.276 3.85582C37.276 4.05349 37.2002 4.22408 37.0486 4.36759C36.8996 4.50839 36.7196 4.57879 36.5084 4.57879ZM41.3711 11.9059C40.7863 11.9059 40.2758 11.7719 39.8399 11.5038C39.404 11.2358 39.0655 10.8608 38.8245 10.3788C38.5835 9.8968 38.463 9.33358 38.463 8.68914C38.463 8.04199 38.5835 7.47607 38.8245 6.99139C39.0655 6.5067 39.404 6.13033 39.8399 5.86226C40.2758 5.59419 40.7863 5.46016 41.3711 5.46016C41.956 5.46016 42.4664 5.59419 42.9024 5.86226C43.3383 6.13033 43.6768 6.5067 43.9178 6.99139C44.1587 7.47607 44.2792 8.04199 44.2792 8.68914C44.2792 9.33358 44.1587 9.8968 43.9178 10.3788C43.6768 10.8608 43.3383 11.2358 42.9024 11.5038C42.4664 11.7719 41.956 11.9059 41.3711 11.9059ZM41.3752 10.8865C41.7543 10.8865 42.0684 10.7863 42.3175 10.5859C42.5666 10.3855 42.7507 10.1188 42.8699 9.78578C42.9917 9.45273 43.0526 9.08583 43.0526 8.68508C43.0526 8.28704 42.9917 7.9215 42.8699 7.58845C42.7507 7.25269 42.5666 6.98327 42.3175 6.78018C42.0684 6.5771 41.7543 6.47556 41.3752 6.47556C40.9934 6.47556 40.6766 6.5771 40.4248 6.78018C40.1757 6.98327 39.9902 7.25269 39.8683 7.58845C39.7492 7.9215 39.6896 8.28704 39.6896 8.68508C39.6896 9.08583 39.7492 9.45273 39.8683 9.78578C39.9902 10.1188 40.1757 10.3855 40.4248 10.5859C40.6766 10.7863 40.9934 10.8865 41.3752 10.8865ZM46.8492 8.07584V11.78H45.6348V5.54139H46.8005V6.5568H46.8777C47.0212 6.22645 47.2459 5.96109 47.5519 5.76072C47.8606 5.56035 48.2491 5.46016 48.7176 5.46016C49.1427 5.46016 49.515 5.54952 49.8345 5.72823C50.154 5.90423 50.4018 6.16688 50.5778 6.51618C50.7538 6.86548 50.8418 7.29736 50.8418 7.81183V11.78H49.6274V7.95805C49.6274 7.50586 49.5096 7.1525 49.274 6.89797C49.0384 6.64074 48.7149 6.51212 48.3033 6.51212C48.0217 6.51212 47.7712 6.57304 47.5519 6.69489C47.3353 6.81674 47.1633 6.99545 47.0361 7.23102C46.9115 7.46389 46.8492 7.74549 46.8492 8.07584ZM52.568 11.78V3.46185H55.533C56.1801 3.46185 56.7162 3.57963 57.1414 3.81521C57.5665 4.05078 57.8846 4.373 58.0958 4.78187C58.307 5.18803 58.4126 5.64564 58.4126 6.1547C58.4126 6.66646 58.3057 7.12678 58.0918 7.53564C57.8806 7.94181 57.5611 8.26403 57.1332 8.50231C56.7081 8.73788 56.1733 8.85567 55.5289 8.85567H53.49V7.79153H55.4152C55.824 7.79153 56.1557 7.72112 56.4103 7.58032C56.6648 7.43681 56.8516 7.24185 56.9708 6.99545C57.0899 6.74905 57.1495 6.46879 57.1495 6.1547C57.1495 5.8406 57.0899 5.5617 56.9708 5.318C56.8516 5.07431 56.6634 4.88341 56.4062 4.74532C56.1517 4.60722 55.8159 4.53817 55.3989 4.53817H53.823V11.78H52.568ZM61.5462 11.9181C61.1508 11.9181 60.7934 11.845 60.4739 11.6988C60.1544 11.5499 59.9012 11.3346 59.7144 11.053C59.5303 10.7714 59.4382 10.4262 59.4382 10.0173C59.4382 9.66528 59.5059 9.37555 59.6413 9.1481C59.7767 8.92065 59.9594 8.74059 60.1896 8.60791C60.4197 8.47523 60.677 8.37504 60.9613 8.30735C61.2456 8.23966 61.5353 8.18821 61.8305 8.15301C62.2042 8.10969 62.5074 8.07448 62.7403 8.04741C62.9732 8.01762 63.1424 7.97024 63.248 7.90525C63.3536 7.84027 63.4064 7.73466 63.4064 7.58845V7.56001C63.4064 7.2053 63.3062 6.93046 63.1058 6.73551C62.9082 6.54055 62.613 6.44307 62.2204 6.44307C61.8115 6.44307 61.4893 6.53378 61.2537 6.7152C61.0209 6.89391 60.8598 7.09293 60.7704 7.31226L59.6291 7.05231C59.7645 6.67323 59.9621 6.36725 60.2221 6.13439C60.4847 5.89881 60.7866 5.72823 61.1278 5.62262C61.469 5.51432 61.8278 5.46016 62.2042 5.46016C62.4533 5.46016 62.7173 5.48995 62.9962 5.54952C63.2778 5.60638 63.5404 5.71198 63.7841 5.86632C64.0305 6.02066 64.2322 6.24134 64.3893 6.52836C64.5463 6.81268 64.6249 7.18228 64.6249 7.63718V11.78H63.4389V10.9271H63.3901C63.3116 11.0841 63.1938 11.2385 63.0368 11.3901C62.8797 11.5417 62.678 11.6677 62.4316 11.7678C62.1852 11.868 61.8901 11.9181 61.5462 11.9181ZM61.8102 10.9433C62.1459 10.9433 62.433 10.877 62.6712 10.7443C62.9122 10.6116 63.095 10.4383 63.2196 10.2244C63.3468 10.0078 63.4105 9.7763 63.4105 9.5299V8.7257C63.3671 8.76902 63.2832 8.80964 63.1586 8.84755C63.0368 8.88275 62.8973 8.91388 62.7403 8.94096C62.5832 8.96533 62.4302 8.98835 62.2813 9.01001C62.1324 9.02896 62.0078 9.04521 61.9077 9.05875C61.6721 9.08853 61.4568 9.13863 61.2619 9.20903C61.0696 9.27943 60.9153 9.38097 60.7988 9.51365C60.6851 9.64362 60.6282 9.81692 60.6282 10.0335C60.6282 10.3341 60.7393 10.5615 60.9613 10.7159C61.1833 10.8675 61.4663 10.9433 61.8102 10.9433ZM66.7867 14.1195C66.6052 14.1195 66.4401 14.1046 66.2911 14.0748C66.1422 14.0478 66.0312 14.018 65.9581 13.9855L66.2505 12.9904C66.4726 13.05 66.6702 13.0757 66.8435 13.0676C67.0168 13.0594 67.1698 12.9945 67.3025 12.8726C67.4379 12.7508 67.557 12.5517 67.6599 12.2755L67.8102 11.8613L65.5276 5.54139H66.8273L68.4072 10.3828H68.4722L70.0522 5.54139H71.356L68.785 12.6127C68.6658 12.9376 68.5142 13.2124 68.3301 13.4372C68.146 13.6646 67.9266 13.8352 67.6721 13.9489C67.4176 14.0627 67.1224 14.1195 66.7867 14.1195Z" fill="white"/>
</svg>
