<svg height="32" viewBox="0 0 32 32" width="32" xmlns="http://www.w3.org/2000/svg" xmlns:xlink="http://www.w3.org/1999/xlink"><defs><filter id="a" height="111.7%" width="111.7%" x="-5.8%" y="-4.2%"><feOffset dy=".5" in="SourceAlpha" result="shadowOffsetOuter1"/><feGaussianBlur in="shadowOffsetOuter1" result="shadowBlurOuter1" stdDeviation=".5"/><feComposite in="shadowBlurOuter1" in2="SourceAlpha" operator="out" result="shadowBlurOuter1"/><feColorMatrix in="shadowBlurOuter1" values="0 0 0 0 0 0 0 0 0 0 0 0 0 0 0 0 0 0 0.199473505 0"/></filter><filter id="b" height="117.5%" width="118.4%" x="-9.2%" y="-6.2%"><feOffset dy=".5" in="SourceAlpha" result="shadowOffsetOuter1"/><feGaussianBlur in="shadowOffsetOuter1" result="shadowBlurOuter1" stdDeviation=".5"/><feColorMatrix in="shadowBlurOuter1" values="0 0 0 0 0 0 0 0 0 0 0 0 0 0 0 0 0 0 0.204257246 0"/></filter><linearGradient id="c" x1="50%" x2="50%" y1="0%" y2="100%"><stop offset="0" stop-color="#fff" stop-opacity=".5"/><stop offset="1" stop-opacity=".5"/></linearGradient><circle id="d" cx="16" cy="15" r="15"/><path id="e" d="m22.59 18.445c.051.401-.063.556-.19.556s-.305-.155-.495-.465-.267-.66-.165-.84c.063-.117.203-.169.368-.104.33.13.457.633.482.853zm-1.777.88c.393.336.508.723.304 1.008a.664.664 0 0 1 -.52.232.896.896 0 0 1 -.597-.22c-.355-.31-.457-.827-.229-1.111a.489.489 0 0 1 .407-.181c.203 0 .432.09.635.271zm-13.813-5.431c0-4.913 3.91-8.894 8.734-8.894 4.825 0 8.735 3.982 8.735 8.894a9.074 9.074 0 0 1 -1.231 4.564c-.026.039-.09.026-.102-.026-.304-2.185-1.612-3.387-3.516-3.749-.166-.026-.191-.13.025-.155.584-.052 1.409-.039 1.84.039a5.9 5.9 0 0 0 .039-.686c0-3.245-2.59-5.882-5.777-5.882-3.186 0-5.776 2.637-5.776 5.882 0 3.246 2.59 5.883 5.776 5.883h.267a8.078 8.078 0 0 1 -.115-1.59c.013-.362.09-.414.242-.13.8 1.41 1.942 2.677 4.177 3.18 1.828.415 3.656.893 5.624 3.44.177.22-.089.452-.292.271-2.006-1.81-3.834-2.405-5.497-2.405-1.867.014-3.136.26-4.419.26-4.824 0-8.734-3.984-8.734-8.897z"/></defs><g fill="none"><use fill="#000" filter="url(#a)" xlink:href="#d"/><use fill="#ff8c00" fill-rule="evenodd" xlink:href="#d"/><use fill="url(#c)" fill-rule="evenodd" xlink:href="#d"/><circle cx="16" cy="15" r="14.5" stroke="#000" stroke-opacity=".097"/><use fill="#000" filter="url(#b)" xlink:href="#e"/><use fill="#fff" fill-rule="evenodd" xlink:href="#e"/></g></svg>