<svg width="104" height="22" viewBox="0 0 104 22" fill="none" xmlns="http://www.w3.org/2000/svg">
    <path d="M0 3C0 1.34315 1.34315 0 3 0H44V22H3C1.34315 22 0 20.6569 0 19V3Z" fill="url(#paint0_linear_322_2282)"/>
    <path d="M103.529 19C103.529 20.6569 102.186 22 100.529 22L43.9999 22L43.9999 3.29688e-06L100.529 -1.64508e-06C102.186 -1.78993e-06 103.529 1.34314 103.529 3L103.529 19Z" fill="url(#paint1_linear_322_2282)"/>
    <path d="M37.1509 4.50488V16.6565H34.9647V4.50488H37.1509ZM40.4265 4.50488V6.46617H31.7402V4.50488H40.4265Z" fill="white"/>
    <path d="M28.706 13.4766C28.706 13.2596 28.6768 13.0649 28.6183 12.8924C28.5647 12.7144 28.4623 12.553 28.3112 12.4084C28.1601 12.2581 27.9481 12.1107 27.6751 11.966C27.4021 11.8214 27.0487 11.6711 26.6149 11.5154C26.1323 11.3373 25.6741 11.137 25.2403 10.9145C24.8113 10.6919 24.4311 10.4332 24.0997 10.1383C23.7731 9.83783 23.5147 9.49009 23.3246 9.09505C23.1394 8.70001 23.0468 8.24098 23.0468 7.71798C23.0468 7.21166 23.1443 6.75263 23.3393 6.3409C23.5342 5.92361 23.8072 5.56752 24.1582 5.27263C24.5091 4.97218 24.9235 4.74128 25.4012 4.57992C25.8837 4.41857 26.4126 4.33789 26.9878 4.33789C27.7726 4.33789 28.4574 4.49924 29.0424 4.82195C29.6273 5.14466 30.0806 5.58699 30.4023 6.14895C30.7289 6.7109 30.8922 7.35354 30.8922 8.07685H28.7133C28.7133 7.72076 28.6475 7.40918 28.5159 7.14211C28.3892 6.86948 28.1942 6.65527 27.931 6.49948C27.6726 6.34369 27.3461 6.26579 26.9512 6.26579C26.571 6.26579 26.2542 6.33256 26.0007 6.46609C25.7472 6.59406 25.5571 6.76933 25.4304 6.99188C25.3037 7.20888 25.2403 7.45369 25.2403 7.72632C25.2403 7.93219 25.2842 8.11858 25.3719 8.2855C25.4645 8.45241 25.601 8.6082 25.7814 8.75287C25.9617 8.89753 26.1835 9.03384 26.4467 9.16181C26.7099 9.28978 27.0146 9.41497 27.3607 9.53738C27.9407 9.73768 28.4501 9.96302 28.8888 10.2134C29.3324 10.4638 29.7029 10.7448 30.0002 11.0563C30.2975 11.3679 30.5218 11.7212 30.6729 12.1163C30.824 12.5113 30.8995 12.9592 30.8995 13.4599C30.8995 13.9885 30.8093 14.4615 30.629 14.8787C30.4486 15.296 30.1879 15.6494 29.8466 15.9387C29.5054 16.228 29.0984 16.4478 28.6256 16.598C28.1528 16.7482 27.6239 16.8233 27.039 16.8233C26.5125 16.8233 25.9934 16.7454 25.4816 16.5897C24.9698 16.4283 24.5043 16.1863 24.0851 15.8636C23.6707 15.5409 23.3393 15.1291 23.0907 14.6284C22.8421 14.1276 22.7178 13.5351 22.7178 12.8507H24.9186C24.9186 13.229 24.9698 13.549 25.0721 13.8105C25.1745 14.072 25.3183 14.2834 25.5035 14.4448C25.6936 14.6061 25.9178 14.723 26.1762 14.7953C26.4394 14.8676 26.727 14.9038 27.039 14.9038C27.4192 14.9038 27.7311 14.8426 27.9749 14.7202C28.2235 14.5978 28.4062 14.4281 28.5232 14.2111C28.6451 13.9941 28.706 13.7493 28.706 13.4766Z" fill="white"/>
    <path d="M21.884 14.7036V16.6565H16.2174V14.7036H21.884ZM16.934 4.50488V16.6565H14.7405V4.50488H16.934ZM21.1455 9.45399V11.3569H16.2174V9.45399H21.1455ZM21.8767 4.50488V6.46617H16.2174V4.50488H21.8767Z" fill="white"/>
    <path d="M9.34441 11.3235H6.60984L6.59522 9.60422H8.89108C9.29566 9.60422 9.62712 9.5458 9.88547 9.42896C10.1438 9.30655 10.3364 9.13129 10.4631 8.90317C10.5947 8.66948 10.6605 8.38572 10.6605 8.05189C10.6605 7.67354 10.5971 7.36752 10.4704 7.13384C10.3485 6.90015 10.156 6.73045 9.89278 6.62474C9.63444 6.51902 9.30054 6.46617 8.89108 6.46617H7.37026V16.6565H5.17676V4.50488H8.89108C9.51014 4.50488 10.0634 4.57165 10.5508 4.70518C11.0432 4.83872 11.4599 5.0418 11.8011 5.31443C12.1423 5.58707 12.4031 5.93203 12.5835 6.34932C12.7638 6.76105 12.854 7.25068 12.854 7.8182C12.854 8.31895 12.7541 8.78076 12.5542 9.20362C12.3593 9.62648 12.0497 9.97144 11.6256 10.2385C11.2064 10.5056 10.6581 10.653 9.98052 10.6808L9.34441 11.3235ZM9.24936 16.6565H6.01029L6.86575 14.7036H9.24936C9.63444 14.7036 9.94884 14.634 10.1926 14.4949C10.4363 14.3502 10.6166 14.1555 10.7336 13.9107C10.8506 13.6659 10.9091 13.3849 10.9091 13.0678C10.9091 12.7117 10.8555 12.4029 10.7482 12.1414C10.6459 11.8799 10.4802 11.6796 10.2511 11.5405C10.022 11.3958 9.71974 11.3235 9.34441 11.3235H7.23134L7.24596 9.60422H9.87816L10.3827 10.2802C11.031 10.2691 11.5525 10.3999 11.9474 10.6725C12.3471 10.9396 12.6371 11.2873 12.8174 11.7157C13.0027 12.1442 13.0953 12.6032 13.0953 13.0928C13.0953 13.8718 12.9466 14.5283 12.6493 15.0624C12.3519 15.591 11.9157 15.9888 11.3405 16.2559C10.7702 16.523 10.0731 16.6565 9.24936 16.6565Z" fill="white"/>
    <path d="M100.289 14.7036V16.6565H95.1143V14.7036H100.289ZM95.7686 4.50488V16.6565H93.7656V4.50488H95.7686ZM99.6144 9.45399V11.3569H95.1143V9.45399H99.6144ZM100.282 4.50488V6.46617H95.1143V4.50488H100.282Z" fill="#404040"/>
    <path d="M92.1498 10.3057V15.1213C91.9985 15.3494 91.7648 15.597 91.4487 15.8641C91.1327 16.1256 90.7254 16.3509 90.2269 16.5401C89.7284 16.7293 89.1252 16.8239 88.4175 16.8239C87.7899 16.8239 87.2179 16.6959 86.7016 16.44C86.1853 16.1785 85.7401 15.7973 85.3663 15.2966C84.9968 14.7958 84.7119 14.1838 84.5116 13.4605C84.3113 12.7316 84.2112 11.8998 84.2112 10.9651V10.2056C84.2112 9.27084 84.3069 8.43904 84.4983 7.71016C84.6941 6.98129 84.9723 6.36647 85.3329 5.86572C85.6934 5.36497 86.1229 4.98384 86.6215 4.72233C87.12 4.46083 87.6742 4.33008 88.284 4.33008C89.1297 4.33008 89.8241 4.50256 90.3671 4.84752C90.9102 5.18692 91.3241 5.65986 91.609 6.26632C91.8983 6.86723 92.0764 7.55715 92.1431 8.3361H90.2002C90.1512 7.92437 90.0578 7.5655 89.9198 7.25949C89.7818 6.95347 89.5837 6.71422 89.3255 6.54174C89.0718 6.36926 88.7424 6.28302 88.3374 6.28302C88.0036 6.28302 87.7053 6.36926 87.4427 6.54174C87.1845 6.70866 86.9664 6.95625 86.7884 7.28452C86.6103 7.61279 86.4746 8.01896 86.3811 8.50302C86.2876 8.98708 86.2409 9.54904 86.2409 10.1889V10.9651C86.2409 11.5993 86.2899 12.1613 86.3878 12.6509C86.4857 13.135 86.6304 13.5439 86.8218 13.8778C87.0176 14.206 87.258 14.4536 87.5429 14.6206C87.8277 14.7875 88.1593 14.8709 88.5377 14.8709C88.8537 14.8709 89.1163 14.8376 89.3255 14.7708C89.5392 14.704 89.7106 14.6233 89.8397 14.5288C89.9732 14.4286 90.0756 14.334 90.1468 14.245V12.0918H88.3174V10.3057H92.1498Z" fill="#404040"/>
    <path d="M82.7019 4.50488V16.6565H80.6989L76.7931 8.51091V16.6565H74.79V4.50488H76.7931L80.7056 12.6588V4.50488H82.7019Z" fill="#404040"/>
    <path d="M69.5561 6.58301L66.9121 16.6565H64.7822L68.3943 4.50488H69.7497L69.5561 6.58301ZM71.7527 16.6565L69.1021 6.58301L68.8884 4.50488H70.2571L73.8893 16.6565H71.7527ZM71.6325 12.133V14.0943H66.4981V12.133H71.6325Z" fill="#404040"/>
    <path d="M62.3112 9.45399V11.4069H57.2369V9.45399H62.3112ZM57.8311 4.50488V16.6565H55.8281V4.50488H57.8311ZM63.74 4.50488V16.6565H61.7437V4.50488H63.74Z" fill="#404040"/>
    <path d="M52.5168 12.6259H54.5132C54.4731 13.4438 54.2928 14.1699 53.9723 14.8042C53.6563 15.4385 53.2134 15.9336 52.6437 16.2897C52.0784 16.6458 51.3974 16.8239 50.6006 16.8239C49.9774 16.8239 49.4188 16.6903 48.9247 16.4233C48.4307 16.1506 48.0078 15.7612 47.6562 15.2548C47.309 14.7485 47.0441 14.1365 46.8616 13.4188C46.6791 12.701 46.5879 11.897 46.5879 11.0068V10.1639C46.5879 9.27363 46.6814 8.46964 46.8683 7.75189C47.0597 7.02858 47.3312 6.41377 47.6829 5.90745C48.039 5.40113 48.464 5.01166 48.9581 4.73903C49.4522 4.46639 50.0041 4.33008 50.6139 4.33008C51.4241 4.33008 52.1073 4.51369 52.6637 4.88091C53.2245 5.24813 53.6585 5.75444 53.9657 6.39986C54.2772 7.04527 54.4642 7.77971 54.5265 8.60317H52.5235C52.5012 8.11355 52.4233 7.69903 52.2898 7.35964C52.1563 7.01467 51.9537 6.75595 51.6822 6.58347C51.4152 6.40542 51.0591 6.3164 50.6139 6.3164C50.2801 6.3164 49.9886 6.39429 49.7393 6.55008C49.49 6.70587 49.2808 6.94234 49.1117 7.25949C48.9425 7.57663 48.8157 7.97723 48.7311 8.46129C48.651 8.93979 48.6109 9.50175 48.6109 10.1472V11.0068C48.6109 11.6355 48.6488 12.1891 48.7244 12.6676C48.8001 13.1406 48.9158 13.5412 49.0716 13.8694C49.2319 14.1921 49.4366 14.4369 49.6859 14.6039C49.9396 14.7652 50.2445 14.8459 50.6006 14.8459C51.019 14.8459 51.364 14.7624 51.6355 14.5955C51.907 14.4286 52.114 14.181 52.2564 13.8527C52.4033 13.5245 52.4901 13.1155 52.5168 12.6259Z" fill="#404040"/>
    <defs>
        <linearGradient id="paint0_linear_322_2282" x1="22" y1="0" x2="22" y2="22" gradientUnits="userSpaceOnUse">
            <stop stop-color="#4C4B47"/>
            <stop offset="1" stop-color="#131412"/>
        </linearGradient>
        <linearGradient id="paint1_linear_322_2282" x1="73.7646" y1="22" x2="73.7646" y2="6.94764e-07" gradientUnits="userSpaceOnUse">
            <stop stop-color="#9F9F9F"/>
            <stop offset="1" stop-color="#F7F7F7"/>
        </linearGradient>
    </defs>
</svg>
