<svg width="195" height="48" viewBox="0 0 195 48" fill="none" xmlns="http://www.w3.org/2000/svg">
    <path d="M11.4695 14.8067C15.1857 16.1142 20.6922 20.6951 22.9075 22.6249C23.0281 22.7335 23.1777 22.8049 23.3381 22.8305C23.4986 22.8561 23.6631 22.8348 23.8117 22.7691C26.47 21.687 32.5551 19.072 35.0145 16.7365C36.7234 15.1043 36.5064 12.1375 35.5751 9.14374C34.7723 6.52421 33.1555 4.22687 30.9582 2.58336C28.761 0.93986 26.0969 0.0352189 23.3505 2.58451e-05H23.2601C17.9708 -0.00771364 12.8264 1.72298 8.62256 4.92438C4.41875 8.12579 1.38986 12.6195 0.00443314 17.7103C-0.0127839 17.8831 0.0203766 18.0572 0.0999328 18.2116C0.179489 18.366 0.302057 18.4943 0.452917 18.5809C0.603776 18.6676 0.776511 18.709 0.950375 18.7001C1.12424 18.6912 1.29184 18.6325 1.43305 18.5309C4.27219 15.7355 7.85277 13.5352 11.4695 14.8067Z" fill="url(#paint0_linear_322_2298)"/>
    <path d="M21.3885 39.4785C20.2311 35.5018 20.9092 27.7558 21.1805 25.1858C21.1946 25.049 21.1748 24.9108 21.1228 24.7834C21.0707 24.6561 20.9881 24.5434 20.8821 24.4554C18.6397 22.5257 13.6486 18.4588 10.5653 17.3586C9.10056 16.8447 7.50015 17.3586 5.93591 18.3415C3.33368 20.0888 1.46583 22.7287 0.687337 25.7595C-0.0911514 28.7902 0.273989 32.0006 1.71336 34.7804C3.71671 38.7574 6.78925 42.1006 10.5878 44.4367C14.3863 46.7727 18.7613 48.0095 23.224 48.009C25.4676 48.0197 27.7017 47.7162 29.8607 47.1073C30.0239 47.0325 30.1611 46.9109 30.2548 46.758C30.3484 46.6051 30.3943 46.4279 30.3865 46.2489C30.3788 46.0699 30.3177 45.8973 30.2112 45.7531C30.1046 45.6088 29.9574 45.4995 29.7883 45.4391C26.0631 44.6816 22.4464 43.0314 21.3885 39.4785Z" fill="url(#paint1_linear_322_2298)"/>
    <path d="M36.8499 18.7384C33.8751 21.5699 26.8225 24.5186 24.3359 25.5015C24.192 25.5591 24.0668 25.6553 23.9743 25.7794C23.8817 25.9035 23.8254 26.0508 23.8115 26.2048C23.5312 29.1085 23.061 35.583 23.9924 38.8293C24.4806 40.5246 26.1443 41.6157 28.2511 42.292C31.2854 43.2087 34.5446 43.0474 37.4729 41.8354C40.4013 40.6235 42.8174 38.4361 44.3094 35.6461C46.2712 32.1042 47.298 28.1231 47.2932 24.0767C47.2959 20.6383 46.5559 17.2397 45.1236 14.112C43.6913 10.9844 41.6003 8.20114 38.9928 5.95161C38.8421 5.85971 38.6677 5.81386 38.4911 5.81971C38.3146 5.82556 38.1436 5.88287 37.9993 5.98454C37.8551 6.08621 37.7438 6.22779 37.6794 6.39181C37.6149 6.55583 37.6 6.7351 37.6365 6.90746C39.1646 10.9293 39.9332 15.7626 36.8499 18.7384Z" fill="url(#paint2_linear_322_2298)"/>
    <path d="M59.0664 33.013L65.3957 30.948C66.0377 33.1933 68.1625 34.3746 71.0378 34.3746C73.7504 34.3746 75.2242 33.5901 75.2242 32.012C75.2242 31.0111 74.6455 30.3708 73.1446 30.1364L67.2403 29.2346C62.2672 28.4591 60.0068 25.5194 60.0068 21.5788C60.0068 16.3938 64.4644 13.0122 70.5767 13.0122C76.3002 13.0122 80.6132 15.8978 81.8971 20.3795L75.5136 22.4355C74.953 20.3164 73.3254 19.117 70.5767 19.117C68.4699 19.117 67.0323 19.9557 67.0323 21.3714C67.0323 22.2731 67.611 22.9765 69.0938 23.1749L74.971 24.1488C79.9079 24.9513 82.2588 27.873 82.2588 31.8136C82.2588 37.2241 77.7379 40.4794 71.0469 40.4794C65.1697 40.4794 60.4227 37.675 59.0664 33.013Z" fill="url(#paint3_linear_322_2298)"/>
    <path d="M92.9943 40.0737L86.249 13.382H93.4825L97.4971 31.6514L101.494 13.382H109.378L113.366 31.6514L117.38 13.382H124.614L117.877 40.0737H109.649L105.4 21.137L101.123 40.0737H92.9943Z" fill="url(#paint4_linear_322_2298)"/>
    <path d="M132.097 40.0737V13.382H142.947L146.654 30.7316L150.37 13.382H161.221V40.0737H154.511V19.5499L149.9 40.0737H143.399L138.788 19.5499V40.0737H132.097Z" fill="url(#paint5_linear_322_2298)"/>
    <path d="M167.463 26.7279C167.463 19.0089 172.96 12.9852 181.369 12.9852C188.069 12.9852 193.223 16.7455 194.932 22.9044L188.25 25.0686C187.409 21.5067 184.878 19.3425 181.333 19.3425C177.056 19.3425 174.552 22.5437 174.552 26.6828C174.552 30.8218 177.056 34.032 181.333 34.032C184.878 34.032 187.409 31.8678 188.25 28.3059L194.932 30.4701C193.187 36.6651 188.033 40.3893 181.369 40.3893C172.978 40.4795 167.463 34.4558 167.463 26.7279Z" fill="url(#paint6_linear_322_2298)"/>
    <defs>
        <linearGradient id="paint0_linear_322_2298" x1="0" y1="11.4205" x2="36.2891" y2="11.4205" gradientUnits="userSpaceOnUse">
            <stop stop-color="#4D7BF1"/>
            <stop offset="1" stop-color="#355FCB"/>
        </linearGradient>
        <linearGradient id="paint1_linear_322_2298" x1="0.287109" y1="32.5827" x2="30.3874" y2="32.5827" gradientUnits="userSpaceOnUse">
            <stop stop-color="#4D7BF1"/>
            <stop offset="1" stop-color="#355FCB"/>
        </linearGradient>
        <linearGradient id="paint2_linear_322_2298" x1="23.4414" y1="24.349" x2="47.2933" y2="24.349" gradientUnits="userSpaceOnUse">
            <stop stop-color="#4D7BF1"/>
            <stop offset="1" stop-color="#355FCB"/>
        </linearGradient>
        <linearGradient id="paint3_linear_322_2298" x1="59.0664" y1="26.7458" x2="82.2588" y2="26.7458" gradientUnits="userSpaceOnUse">
            <stop stop-color="#4D7BF1"/>
            <stop offset="1" stop-color="#355FCB"/>
        </linearGradient>
        <linearGradient id="paint4_linear_322_2298" x1="86.249" y1="26.7278" x2="124.614" y2="26.7278" gradientUnits="userSpaceOnUse">
            <stop stop-color="#4D7BF1"/>
            <stop offset="1" stop-color="#355FCB"/>
        </linearGradient>
        <linearGradient id="paint5_linear_322_2298" x1="132.097" y1="26.7278" x2="161.221" y2="26.7278" gradientUnits="userSpaceOnUse">
            <stop stop-color="#4D7BF1"/>
            <stop offset="1" stop-color="#355FCB"/>
        </linearGradient>
        <linearGradient id="paint6_linear_322_2298" x1="167.463" y1="26.6878" x2="194.932" y2="26.6878" gradientUnits="userSpaceOnUse">
            <stop stop-color="#4D7BF1"/>
            <stop offset="1" stop-color="#355FCB"/>
        </linearGradient>
    </defs>
</svg>
